<svg xmlns="http://www.w3.org/2000/svg" width="220" height="16" viewBox="0 0 220 16" fill="none"><script xmlns=""/><script xmlns=""/>
    <g clip-path="url(#clip0_2104_884)">
        <path d="M2.58666 1.80772C2.58666 1.31507 2.93842 0.963325 3.43105 0.963325H17.8796C18.3723 0.963325 18.771 1.31509 18.771 1.80772V5.18536H19.7091V1.80772C19.7091 0.822592 18.8647 0.0251465 17.8796 0.0251465H3.43101C2.44588 0.0251465 1.64844 0.799053 1.64844 1.80772V8.23453H2.58657L2.58666 1.80772Z" fill="white"/>
        <path d="M14.7836 13.6293V12.6912H5.63599V13.6293H10.0925V14.5674H8.07536C7.81734 14.5674 7.62966 14.7785 7.62966 15.0365C7.62966 15.2945 7.84072 15.5056 8.07536 15.5056H12.9541C13.2121 15.5056 13.3998 15.2945 13.3998 15.0365C13.3998 14.7785 13.1887 14.5674 12.9541 14.5674L11.0308 14.5676V13.6295L14.7836 13.6293Z" fill="white"/>
        <path d="M22.2892 6.14692C22.2892 5.7482 21.9608 5.41984 21.5621 5.41984L15.7451 5.41968C15.3464 5.41968 15.0181 5.74805 15.0181 6.14676V15.2475C15.0181 15.6462 15.3464 15.9746 15.7451 15.9746H21.5621C21.9609 15.9746 22.2892 15.6462 22.2892 15.2475V6.14692ZM18.677 15.5291C18.5832 15.5291 18.4893 15.4588 18.4893 15.3415C18.4893 15.2477 18.5597 15.1538 18.677 15.1538C18.7707 15.1538 18.8646 15.2241 18.8646 15.3415C18.8646 15.4352 18.7709 15.5291 18.677 15.5291ZM15.7216 14.5674V6.35798H21.5151V14.5674H15.7216Z" fill="white"/>
        <path d="M5.40135 8.91469C5.40135 8.65667 5.19028 8.46899 4.95565 8.46899H1.1559C0.921443 8.46899 0.710205 8.68006 0.710205 8.91469V15.5291C0.710205 15.7636 0.92143 15.9747 1.1559 15.9747H4.95565C5.21367 15.9747 5.40135 15.7636 5.40135 15.529V8.91469ZM3.00901 15.5761C2.91526 15.5761 2.82135 15.5057 2.82135 15.3884C2.82135 15.2946 2.8917 15.2007 3.00901 15.2007C3.12632 15.2007 3.19668 15.2711 3.19668 15.3884C3.19668 15.5057 3.12616 15.5761 3.00901 15.5761ZM4.93228 14.802H1.17948V9.1727H4.93245L4.93228 14.802Z" fill="white"/>
    </g>
    <path d="M27.5302 12C27.4502 12 27.3822 11.972 27.3262 11.916C27.2702 11.86 27.2422 11.788 27.2422 11.7V3.9C27.2422 3.812 27.2702 3.74 27.3262 3.684C27.3822 3.628 27.4542 3.6 27.5422 3.6H28.6222C28.7102 3.6 28.7782 3.628 28.8262 3.684C28.8822 3.74 28.9102 3.812 28.9102 3.9V9.408L32.8582 3.792C32.8902 3.752 32.9342 3.712 32.9902 3.672C33.0462 3.624 33.1182 3.6 33.2062 3.6H34.2022C34.2822 3.6 34.3502 3.628 34.4062 3.684C34.4622 3.74 34.4902 3.812 34.4902 3.9V11.712C34.4902 11.792 34.4622 11.86 34.4062 11.916C34.3502 11.972 34.2822 12 34.2022 12H33.1222C33.0342 12 32.9622 11.972 32.9062 11.916C32.8502 11.86 32.8222 11.792 32.8222 11.712V6.312L28.8862 11.808C28.8622 11.84 28.8222 11.88 28.7662 11.928C28.7102 11.976 28.6342 12 28.5382 12H27.5302ZM36.5033 12C36.4233 12 36.3553 11.972 36.2993 11.916C36.2433 11.86 36.2153 11.792 36.2153 11.712V6.048C36.2153 5.968 36.2433 5.9 36.2993 5.844C36.3553 5.788 36.4233 5.76 36.5033 5.76H37.4993C37.5873 5.76 37.6553 5.788 37.7033 5.844C37.7593 5.9 37.7873 5.968 37.7873 6.048V8.196H40.4993V6.048C40.4993 5.968 40.5273 5.9 40.5833 5.844C40.6393 5.788 40.7073 5.76 40.7873 5.76H41.7833C41.8633 5.76 41.9313 5.788 41.9873 5.844C42.0433 5.9 42.0713 5.968 42.0713 6.048V11.712C42.0713 11.792 42.0433 11.86 41.9873 11.916C41.9313 11.972 41.8633 12 41.7833 12H40.7873C40.7073 12 40.6393 11.972 40.5833 11.916C40.5273 11.86 40.4993 11.792 40.4993 11.712V9.456H37.7873V11.712C37.7873 11.792 37.7593 11.86 37.7033 11.916C37.6553 11.972 37.5873 12 37.4993 12H36.5033ZM46.3919 12.12C45.8159 12.12 45.3079 12.012 44.8679 11.796C44.4359 11.58 44.0959 11.268 43.8479 10.86C43.6079 10.444 43.4759 9.944 43.4519 9.36C43.4439 9.24 43.4399 9.084 43.4399 8.892C43.4399 8.692 43.4439 8.528 43.4519 8.4C43.4759 7.816 43.6079 7.32 43.8479 6.912C44.0959 6.496 44.4359 6.18 44.8679 5.964C45.3079 5.748 45.8159 5.64 46.3919 5.64C46.9039 5.64 47.3399 5.712 47.6999 5.856C48.0599 6 48.3559 6.18 48.5879 6.396C48.8199 6.612 48.9919 6.84 49.1039 7.08C49.2239 7.312 49.2879 7.524 49.2959 7.716C49.3039 7.804 49.2759 7.876 49.2119 7.932C49.1559 7.98 49.0879 8.004 49.0079 8.004H47.9519C47.8719 8.004 47.8079 7.984 47.7599 7.944C47.7199 7.904 47.6799 7.844 47.6399 7.764C47.5199 7.444 47.3599 7.22 47.1599 7.092C46.9679 6.956 46.7199 6.888 46.4159 6.888C46.0159 6.888 45.6959 7.016 45.4559 7.272C45.2239 7.52 45.0999 7.916 45.0839 8.46C45.0679 8.764 45.0679 9.044 45.0839 9.3C45.0999 9.852 45.2239 10.252 45.4559 10.5C45.6959 10.748 46.0159 10.872 46.4159 10.872C46.7279 10.872 46.9799 10.808 47.1719 10.68C47.3639 10.544 47.5199 10.316 47.6399 9.996C47.6799 9.916 47.7199 9.856 47.7599 9.816C47.8079 9.776 47.8719 9.756 47.9519 9.756H49.0079C49.0879 9.756 49.1559 9.784 49.2119 9.84C49.2759 9.888 49.3039 9.956 49.2959 10.044C49.2879 10.188 49.2479 10.352 49.1759 10.536C49.1119 10.712 49.0039 10.896 48.8519 11.088C48.7079 11.272 48.5239 11.444 48.2999 11.604C48.0759 11.756 47.8039 11.88 47.4839 11.976C47.1719 12.072 46.8079 12.12 46.3919 12.12ZM52.4554 12C52.3674 12 52.2954 11.972 52.2394 11.916C52.1914 11.86 52.1674 11.792 52.1674 11.712V7.032H50.2114C50.1234 7.032 50.0514 7.004 49.9954 6.948C49.9474 6.892 49.9234 6.824 49.9234 6.744V6.048C49.9234 5.968 49.9474 5.9 49.9954 5.844C50.0514 5.788 50.1234 5.76 50.2114 5.76H55.6594C55.7474 5.76 55.8194 5.788 55.8754 5.844C55.9314 5.9 55.9594 5.968 55.9594 6.048V6.744C55.9594 6.824 55.9314 6.892 55.8754 6.948C55.8194 7.004 55.7474 7.032 55.6594 7.032H53.7154V11.712C53.7154 11.792 53.6874 11.86 53.6314 11.916C53.5754 11.972 53.5074 12 53.4274 12H52.4554ZM57.2107 14.28C57.1307 14.28 57.0627 14.252 57.0067 14.196C56.9507 14.14 56.9227 14.072 56.9227 13.992V6.048C56.9227 5.968 56.9507 5.9 57.0067 5.844C57.0627 5.788 57.1307 5.76 57.2107 5.76H58.1587C58.2467 5.76 58.3147 5.788 58.3627 5.844C58.4187 5.9 58.4467 5.968 58.4467 6.048V6.528C58.6387 6.272 58.8907 6.06 59.2027 5.892C59.5147 5.724 59.9027 5.64 60.3667 5.64C60.7907 5.64 61.1587 5.708 61.4707 5.844C61.7827 5.98 62.0427 6.176 62.2507 6.432C62.4587 6.68 62.6187 6.976 62.7307 7.32C62.8427 7.664 62.9067 8.044 62.9227 8.46C62.9307 8.596 62.9347 8.736 62.9347 8.88C62.9347 9.024 62.9307 9.168 62.9227 9.312C62.9147 9.712 62.8547 10.084 62.7427 10.428C62.6307 10.764 62.4667 11.06 62.2507 11.316C62.0427 11.564 61.7827 11.76 61.4707 11.904C61.1587 12.048 60.7907 12.12 60.3667 12.12C59.9347 12.12 59.5667 12.044 59.2627 11.892C58.9587 11.732 58.7107 11.524 58.5187 11.268V13.992C58.5187 14.072 58.4907 14.14 58.4347 14.196C58.3867 14.252 58.3187 14.28 58.2307 14.28H57.2107ZM59.9227 10.836C60.2667 10.836 60.5347 10.764 60.7267 10.62C60.9187 10.468 61.0547 10.272 61.1347 10.032C61.2227 9.792 61.2747 9.528 61.2907 9.24C61.3067 9 61.3067 8.76 61.2907 8.52C61.2747 8.232 61.2227 7.968 61.1347 7.728C61.0547 7.488 60.9187 7.296 60.7267 7.152C60.5347 7 60.2667 6.924 59.9227 6.924C59.5947 6.924 59.3267 7 59.1187 7.152C58.9187 7.304 58.7707 7.5 58.6747 7.74C58.5867 7.972 58.5347 8.212 58.5187 8.46C58.5107 8.604 58.5067 8.756 58.5067 8.916C58.5067 9.076 58.5107 9.232 58.5187 9.384C58.5267 9.624 58.5827 9.856 58.6867 10.08C58.7907 10.296 58.9427 10.476 59.1427 10.62C59.3427 10.764 59.6027 10.836 59.9227 10.836ZM64.7257 14.28C64.6457 14.28 64.5777 14.252 64.5217 14.196C64.4657 14.148 64.4377 14.08 64.4377 13.992V13.308C64.4377 13.22 64.4657 13.148 64.5217 13.092C64.5777 13.044 64.6457 13.02 64.7257 13.02H65.0977C65.2577 13.02 65.3897 12.988 65.4937 12.924C65.5977 12.86 65.6937 12.752 65.7817 12.6C65.8697 12.456 65.9657 12.256 66.0697 12L68.5657 5.988C68.5977 5.924 68.6377 5.872 68.6857 5.832C68.7337 5.784 68.8057 5.76 68.9017 5.76H69.8137C69.8777 5.76 69.9337 5.784 69.9817 5.832C70.0377 5.88 70.0657 5.936 70.0657 6C70.0657 6.032 70.0617 6.06 70.0537 6.084C70.0537 6.108 70.0417 6.144 70.0177 6.192L67.7377 11.64C67.6017 11.984 67.4537 12.312 67.2937 12.624C67.1417 12.944 66.9697 13.228 66.7777 13.476C66.5937 13.732 66.3777 13.928 66.1297 14.064C65.8817 14.208 65.5897 14.28 65.2537 14.28H64.7257ZM66.2737 11.844L63.8377 6.192C63.8057 6.112 63.7897 6.056 63.7897 6.024C63.7977 5.952 63.8257 5.892 63.8737 5.844C63.9217 5.788 63.9817 5.76 64.0537 5.76H65.0137C65.1097 5.76 65.1777 5.784 65.2177 5.832C65.2657 5.88 65.3017 5.932 65.3257 5.988L67.1857 10.572L66.2737 11.844ZM71.4135 12C71.3335 12 71.2655 11.972 71.2095 11.916C71.1535 11.86 71.1255 11.792 71.1255 11.712V6.048C71.1255 5.968 71.1535 5.9 71.2095 5.844C71.2655 5.788 71.3335 5.76 71.4135 5.76H72.3975C72.4775 5.76 72.5455 5.788 72.6015 5.844C72.6575 5.9 72.6855 5.968 72.6855 6.048V8.196H73.5495L75.0135 5.952C75.0455 5.896 75.0855 5.852 75.1335 5.82C75.1895 5.78 75.2615 5.76 75.3495 5.76H76.4175C76.4975 5.76 76.5615 5.78 76.6095 5.82C76.6575 5.86 76.6815 5.912 76.6815 5.976C76.6815 6 76.6735 6.028 76.6575 6.06C76.6495 6.084 76.6375 6.108 76.6215 6.132L74.8935 8.76L76.8735 11.628C76.9135 11.676 76.9335 11.728 76.9335 11.784C76.9335 11.848 76.9095 11.9 76.8615 11.94C76.8135 11.98 76.7535 12 76.6815 12H75.4695C75.3895 12 75.3215 11.984 75.2655 11.952C75.2175 11.92 75.1735 11.876 75.1335 11.82L73.5495 9.468H72.6855V11.712C72.6855 11.792 72.6575 11.86 72.6015 11.916C72.5455 11.972 72.4775 12 72.3975 12H71.4135ZM83.237 13.464C83.157 13.464 83.089 13.436 83.033 13.38C82.977 13.324 82.949 13.256 82.949 13.176V12H78.269C78.189 12 78.121 11.972 78.065 11.916C78.009 11.86 77.981 11.792 77.981 11.712V6.048C77.981 5.968 78.009 5.9 78.065 5.844C78.121 5.788 78.189 5.76 78.269 5.76H79.265C79.353 5.76 79.421 5.788 79.469 5.844C79.525 5.9 79.553 5.968 79.553 6.048V10.728H82.121V6.048C82.121 5.968 82.149 5.9 82.205 5.844C82.261 5.788 82.329 5.76 82.409 5.76H83.405C83.493 5.76 83.561 5.788 83.609 5.844C83.665 5.9 83.693 5.968 83.693 6.048V10.728H84.233C84.313 10.728 84.381 10.756 84.437 10.812C84.493 10.868 84.521 10.936 84.521 11.016V13.176C84.521 13.256 84.493 13.324 84.437 13.38C84.381 13.436 84.313 13.464 84.233 13.464H83.237ZM85.8976 12C85.8256 12 85.7616 11.972 85.7056 11.916C85.6496 11.86 85.6216 11.796 85.6216 11.724V6.048C85.6216 5.968 85.6496 5.9 85.7056 5.844C85.7616 5.788 85.8296 5.76 85.9096 5.76H86.9056C86.9936 5.76 87.0616 5.788 87.1096 5.844C87.1656 5.9 87.1936 5.968 87.1936 6.048V10.788L86.7736 10.488L90.0736 5.952C90.1136 5.896 90.1576 5.852 90.2056 5.82C90.2536 5.78 90.3176 5.76 90.3976 5.76H91.3096C91.3816 5.76 91.4456 5.788 91.5016 5.844C91.5576 5.892 91.5856 5.952 91.5856 6.024V11.712C91.5856 11.792 91.5576 11.86 91.5016 11.916C91.4456 11.972 91.3776 12 91.2976 12H90.3016C90.2136 12 90.1416 11.972 90.0856 11.916C90.0376 11.86 90.0136 11.792 90.0136 11.712V7.188L90.4576 7.248L87.1336 11.808C87.1016 11.856 87.0576 11.9 87.0016 11.94C86.9536 11.98 86.8896 12 86.8096 12H85.8976ZM97.0582 12C96.9702 12 96.8982 11.972 96.8422 11.916C96.7942 11.86 96.7702 11.792 96.7702 11.712V9.876H95.5822V9.816C94.7742 9.816 94.1662 9.632 93.7582 9.264C93.3582 8.888 93.1582 8.396 93.1582 7.788C93.1582 7.116 93.3702 6.612 93.7942 6.276C94.2182 5.932 94.8302 5.76 95.6302 5.76H98.0782C98.1582 5.76 98.2262 5.788 98.2822 5.844C98.3382 5.9 98.3662 5.968 98.3662 6.048V11.712C98.3662 11.792 98.3382 11.86 98.2822 11.916C98.2262 11.972 98.1582 12 98.0782 12H97.0582ZM93.2182 12C93.1462 12 93.0862 11.976 93.0382 11.928C92.9902 11.88 92.9662 11.824 92.9662 11.76C92.9662 11.736 92.9702 11.708 92.9782 11.676C92.9862 11.636 93.0062 11.6 93.0382 11.568L94.3822 9.456L95.8462 9.648L94.5142 11.82C94.4902 11.868 94.4502 11.912 94.3942 11.952C94.3382 11.984 94.2782 12 94.2142 12H93.2182ZM95.5942 8.736H96.7942V6.9H95.6662C95.2982 6.9 95.0262 6.968 94.8502 7.104C94.6742 7.232 94.5862 7.46 94.5862 7.788C94.5862 8.068 94.6662 8.296 94.8262 8.472C94.9942 8.648 95.2502 8.736 95.5942 8.736ZM102.491 13.32C102.411 13.32 102.343 13.292 102.287 13.236C102.231 13.18 102.203 13.112 102.203 13.032V11.016C102.203 10.936 102.231 10.868 102.287 10.812C102.343 10.756 102.411 10.728 102.491 10.728H102.587C102.795 10.728 102.963 10.62 103.091 10.404C103.227 10.18 103.327 9.844 103.391 9.396C103.455 8.94 103.487 8.364 103.487 7.668V6.048C103.487 5.968 103.515 5.9 103.571 5.844C103.627 5.788 103.695 5.76 103.775 5.76H108.047C108.135 5.76 108.203 5.788 108.251 5.844C108.307 5.9 108.335 5.968 108.335 6.048V10.716H108.875C108.963 10.716 109.031 10.744 109.079 10.8C109.135 10.856 109.163 10.924 109.163 11.004V13.032C109.163 13.112 109.135 13.18 109.079 13.236C109.031 13.292 108.963 13.32 108.875 13.32H107.879C107.799 13.32 107.731 13.292 107.675 13.236C107.619 13.18 107.591 13.112 107.591 13.032V12H103.775V13.032C103.775 13.112 103.747 13.18 103.691 13.236C103.635 13.292 103.567 13.32 103.487 13.32H102.491ZM104.435 10.728L106.763 10.716V7.032H104.999V7.836C104.999 8.556 104.951 9.152 104.855 9.624C104.759 10.096 104.619 10.464 104.435 10.728ZM110.074 12C109.986 12 109.914 11.972 109.858 11.916C109.802 11.86 109.774 11.788 109.774 11.7V10.956C109.774 10.78 109.866 10.684 110.05 10.668C110.29 10.652 110.482 10.54 110.626 10.332C110.77 10.124 110.874 9.804 110.938 9.372C111.002 8.932 111.034 8.364 111.034 7.668V6.048C111.034 5.968 111.062 5.9 111.118 5.844C111.174 5.788 111.246 5.76 111.334 5.76H115.594C115.674 5.76 115.742 5.788 115.798 5.844C115.854 5.9 115.882 5.968 115.882 6.048V11.712C115.882 11.792 115.854 11.86 115.798 11.916C115.742 11.972 115.674 12 115.594 12H114.598C114.51 12 114.438 11.972 114.382 11.916C114.334 11.86 114.31 11.792 114.31 11.712V7.032H112.546V7.836C112.546 8.604 112.502 9.256 112.414 9.792C112.334 10.32 112.194 10.748 111.994 11.076C111.802 11.396 111.546 11.632 111.226 11.784C110.914 11.928 110.53 12 110.074 12ZM121.457 12C121.369 12 121.297 11.972 121.241 11.916C121.193 11.86 121.169 11.792 121.169 11.712V9.876H119.981V9.816C119.173 9.816 118.565 9.632 118.157 9.264C117.757 8.888 117.557 8.396 117.557 7.788C117.557 7.116 117.769 6.612 118.193 6.276C118.617 5.932 119.229 5.76 120.029 5.76H122.477C122.557 5.76 122.625 5.788 122.681 5.844C122.737 5.9 122.765 5.968 122.765 6.048V11.712C122.765 11.792 122.737 11.86 122.681 11.916C122.625 11.972 122.557 12 122.477 12H121.457ZM117.617 12C117.545 12 117.485 11.976 117.437 11.928C117.389 11.88 117.365 11.824 117.365 11.76C117.365 11.736 117.369 11.708 117.377 11.676C117.385 11.636 117.405 11.6 117.437 11.568L118.781 9.456L120.245 9.648L118.913 11.82C118.889 11.868 118.849 11.912 118.793 11.952C118.737 11.984 118.677 12 118.613 12H117.617ZM119.993 8.736H121.193V6.9H120.065C119.697 6.9 119.425 6.968 119.249 7.104C119.073 7.232 118.985 7.46 118.985 7.788C118.985 8.068 119.065 8.296 119.225 8.472C119.393 8.648 119.649 8.736 119.993 8.736ZM127.417 12C127.337 12 127.269 11.972 127.213 11.916C127.157 11.86 127.129 11.792 127.129 11.712V6.048C127.129 5.968 127.157 5.9 127.213 5.844C127.269 5.788 127.337 5.76 127.417 5.76H130.081C130.929 5.76 131.557 5.916 131.965 6.228C132.373 6.54 132.577 6.96 132.577 7.488C132.577 7.824 132.513 8.084 132.385 8.268C132.257 8.452 132.081 8.612 131.857 8.748C132.137 8.876 132.353 9.072 132.505 9.336C132.665 9.592 132.745 9.876 132.745 10.188C132.745 10.764 132.529 11.212 132.097 11.532C131.673 11.844 131.045 12 130.213 12H127.417ZM128.665 10.92H130.105C130.425 10.92 130.681 10.86 130.873 10.74C131.065 10.62 131.161 10.432 131.161 10.176C131.161 9.912 131.073 9.72 130.897 9.6C130.721 9.48 130.457 9.42 130.105 9.42H128.665V10.92ZM128.665 8.304H130.057C130.377 8.304 130.629 8.24 130.813 8.112C130.997 7.976 131.089 7.78 131.089 7.524C131.089 7.268 130.993 7.092 130.801 6.996C130.617 6.892 130.369 6.84 130.057 6.84H128.665V8.304ZM136.825 12.12C136.249 12.12 135.741 12.012 135.301 11.796C134.869 11.58 134.529 11.268 134.281 10.86C134.041 10.444 133.909 9.944 133.885 9.36C133.877 9.24 133.873 9.084 133.873 8.892C133.873 8.692 133.877 8.528 133.885 8.4C133.909 7.816 134.041 7.32 134.281 6.912C134.529 6.496 134.869 6.18 135.301 5.964C135.741 5.748 136.249 5.64 136.825 5.64C137.337 5.64 137.773 5.712 138.133 5.856C138.493 6 138.789 6.18 139.021 6.396C139.253 6.612 139.425 6.84 139.537 7.08C139.657 7.312 139.721 7.524 139.729 7.716C139.737 7.804 139.709 7.876 139.645 7.932C139.589 7.98 139.521 8.004 139.441 8.004H138.385C138.305 8.004 138.241 7.984 138.193 7.944C138.153 7.904 138.113 7.844 138.073 7.764C137.953 7.444 137.793 7.22 137.593 7.092C137.401 6.956 137.153 6.888 136.849 6.888C136.449 6.888 136.129 7.016 135.889 7.272C135.657 7.52 135.533 7.916 135.517 8.46C135.501 8.764 135.501 9.044 135.517 9.3C135.533 9.852 135.657 10.252 135.889 10.5C136.129 10.748 136.449 10.872 136.849 10.872C137.161 10.872 137.413 10.808 137.605 10.68C137.797 10.544 137.953 10.316 138.073 9.996C138.113 9.916 138.153 9.856 138.193 9.816C138.241 9.776 138.305 9.756 138.385 9.756H139.441C139.521 9.756 139.589 9.784 139.645 9.84C139.709 9.888 139.737 9.956 139.729 10.044C139.721 10.188 139.681 10.352 139.609 10.536C139.545 10.712 139.437 10.896 139.285 11.088C139.141 11.272 138.957 11.444 138.733 11.604C138.509 11.756 138.237 11.88 137.917 11.976C137.605 12.072 137.241 12.12 136.825 12.12ZM143.669 12.12C142.781 12.12 142.077 11.864 141.557 11.352C141.037 10.84 140.757 10.112 140.717 9.168C140.709 9.088 140.705 8.988 140.705 8.868C140.705 8.74 140.709 8.64 140.717 8.568C140.749 7.968 140.885 7.448 141.125 7.008C141.373 6.568 141.713 6.232 142.145 6C142.577 5.76 143.085 5.64 143.669 5.64C144.317 5.64 144.861 5.776 145.301 6.048C145.741 6.312 146.073 6.684 146.297 7.164C146.521 7.636 146.633 8.184 146.633 8.808V9.06C146.633 9.14 146.605 9.208 146.549 9.264C146.493 9.32 146.421 9.348 146.333 9.348H142.349C142.349 9.348 142.349 9.36 142.349 9.384C142.349 9.408 142.349 9.428 142.349 9.444C142.357 9.724 142.409 9.984 142.505 10.224C142.609 10.456 142.757 10.644 142.949 10.788C143.149 10.932 143.385 11.004 143.657 11.004C143.881 11.004 144.069 10.972 144.221 10.908C144.373 10.836 144.497 10.756 144.593 10.668C144.689 10.58 144.757 10.508 144.797 10.452C144.869 10.356 144.925 10.3 144.965 10.284C145.013 10.26 145.081 10.248 145.169 10.248H146.201C146.281 10.248 146.345 10.272 146.393 10.32C146.449 10.368 146.473 10.428 146.465 10.5C146.457 10.628 146.389 10.784 146.261 10.968C146.141 11.152 145.965 11.332 145.733 11.508C145.501 11.684 145.209 11.832 144.857 11.952C144.513 12.064 144.117 12.12 143.669 12.12ZM142.349 8.34H145.001V8.304C145.001 7.992 144.949 7.72 144.845 7.488C144.741 7.256 144.589 7.072 144.389 6.936C144.189 6.8 143.949 6.732 143.669 6.732C143.389 6.732 143.149 6.8 142.949 6.936C142.749 7.072 142.597 7.256 142.493 7.488C142.397 7.72 142.349 7.992 142.349 8.304V8.34ZM147.643 12C147.571 12 147.507 11.976 147.451 11.928C147.403 11.872 147.379 11.808 147.379 11.736C147.379 11.712 147.383 11.684 147.391 11.652C147.407 11.62 147.431 11.58 147.463 11.532L149.503 8.796L147.607 6.228C147.583 6.188 147.563 6.152 147.547 6.12C147.539 6.088 147.535 6.056 147.535 6.024C147.535 5.952 147.559 5.892 147.607 5.844C147.663 5.788 147.727 5.76 147.799 5.76H148.843C148.939 5.76 149.011 5.784 149.059 5.832C149.107 5.88 149.143 5.924 149.167 5.964L150.523 7.764L151.879 5.964C151.911 5.924 151.947 5.88 151.987 5.832C152.035 5.784 152.107 5.76 152.203 5.76H153.199C153.271 5.76 153.331 5.788 153.379 5.844C153.435 5.892 153.463 5.948 153.463 6.012C153.463 6.052 153.455 6.088 153.439 6.12C153.431 6.152 153.415 6.188 153.391 6.228L151.471 8.82L153.523 11.532C153.555 11.58 153.575 11.62 153.583 11.652C153.599 11.684 153.607 11.712 153.607 11.736C153.607 11.808 153.579 11.872 153.523 11.928C153.475 11.976 153.415 12 153.343 12H152.251C152.163 12 152.095 11.98 152.047 11.94C151.999 11.892 151.959 11.848 151.927 11.808L150.487 9.9L149.023 11.808C148.991 11.848 148.951 11.892 148.903 11.94C148.863 11.98 148.795 12 148.699 12H147.643ZM157.866 14.28C157.786 14.28 157.718 14.252 157.662 14.196C157.606 14.148 157.578 14.08 157.578 13.992V13.308C157.578 13.22 157.606 13.148 157.662 13.092C157.718 13.044 157.786 13.02 157.866 13.02H158.238C158.398 13.02 158.53 12.988 158.634 12.924C158.738 12.86 158.834 12.752 158.922 12.6C159.01 12.456 159.106 12.256 159.21 12L161.706 5.988C161.738 5.924 161.778 5.872 161.826 5.832C161.874 5.784 161.946 5.76 162.042 5.76H162.954C163.018 5.76 163.074 5.784 163.122 5.832C163.178 5.88 163.206 5.936 163.206 6C163.206 6.032 163.202 6.06 163.194 6.084C163.194 6.108 163.182 6.144 163.158 6.192L160.878 11.64C160.742 11.984 160.594 12.312 160.434 12.624C160.282 12.944 160.11 13.228 159.918 13.476C159.734 13.732 159.518 13.928 159.27 14.064C159.022 14.208 158.73 14.28 158.394 14.28H157.866ZM159.414 11.844L156.978 6.192C156.946 6.112 156.93 6.056 156.93 6.024C156.938 5.952 156.966 5.892 157.014 5.844C157.062 5.788 157.122 5.76 157.194 5.76H158.154C158.25 5.76 158.318 5.784 158.358 5.832C158.406 5.88 158.442 5.932 158.466 5.988L160.326 10.572L159.414 11.844ZM166.966 12.12C166.39 12.12 165.882 12.012 165.442 11.796C165.01 11.58 164.67 11.268 164.422 10.86C164.182 10.444 164.05 9.944 164.026 9.36C164.018 9.24 164.014 9.084 164.014 8.892C164.014 8.692 164.018 8.528 164.026 8.4C164.05 7.816 164.182 7.32 164.422 6.912C164.67 6.496 165.01 6.18 165.442 5.964C165.882 5.748 166.39 5.64 166.966 5.64C167.478 5.64 167.914 5.712 168.274 5.856C168.634 6 168.93 6.18 169.162 6.396C169.394 6.612 169.566 6.84 169.678 7.08C169.798 7.312 169.862 7.524 169.87 7.716C169.878 7.804 169.85 7.876 169.786 7.932C169.73 7.98 169.662 8.004 169.582 8.004H168.526C168.446 8.004 168.382 7.984 168.334 7.944C168.294 7.904 168.254 7.844 168.214 7.764C168.094 7.444 167.934 7.22 167.734 7.092C167.542 6.956 167.294 6.888 166.99 6.888C166.59 6.888 166.27 7.016 166.03 7.272C165.798 7.52 165.674 7.916 165.658 8.46C165.642 8.764 165.642 9.044 165.658 9.3C165.674 9.852 165.798 10.252 166.03 10.5C166.27 10.748 166.59 10.872 166.99 10.872C167.302 10.872 167.554 10.808 167.746 10.68C167.938 10.544 168.094 10.316 168.214 9.996C168.254 9.916 168.294 9.856 168.334 9.816C168.382 9.776 168.446 9.756 168.526 9.756H169.582C169.662 9.756 169.73 9.784 169.786 9.84C169.85 9.888 169.878 9.956 169.87 10.044C169.862 10.188 169.822 10.352 169.75 10.536C169.686 10.712 169.578 10.896 169.426 11.088C169.282 11.272 169.098 11.444 168.874 11.604C168.65 11.756 168.378 11.88 168.058 11.976C167.746 12.072 167.382 12.12 166.966 12.12ZM173.03 12C172.942 12 172.87 11.972 172.814 11.916C172.766 11.86 172.742 11.792 172.742 11.712V7.032H170.786C170.698 7.032 170.626 7.004 170.57 6.948C170.522 6.892 170.498 6.824 170.498 6.744V6.048C170.498 5.968 170.522 5.9 170.57 5.844C170.626 5.788 170.698 5.76 170.786 5.76H176.234C176.322 5.76 176.394 5.788 176.45 5.844C176.506 5.9 176.534 5.968 176.534 6.048V6.744C176.534 6.824 176.506 6.892 176.45 6.948C176.394 7.004 176.322 7.032 176.234 7.032H174.29V11.712C174.29 11.792 174.262 11.86 174.206 11.916C174.15 11.972 174.082 12 174.002 12H173.03ZM177.785 14.28C177.705 14.28 177.637 14.252 177.581 14.196C177.525 14.14 177.497 14.072 177.497 13.992V6.048C177.497 5.968 177.525 5.9 177.581 5.844C177.637 5.788 177.705 5.76 177.785 5.76H178.733C178.821 5.76 178.889 5.788 178.937 5.844C178.993 5.9 179.021 5.968 179.021 6.048V6.528C179.213 6.272 179.465 6.06 179.777 5.892C180.089 5.724 180.477 5.64 180.941 5.64C181.365 5.64 181.733 5.708 182.045 5.844C182.357 5.98 182.617 6.176 182.825 6.432C183.033 6.68 183.193 6.976 183.305 7.32C183.417 7.664 183.481 8.044 183.497 8.46C183.505 8.596 183.509 8.736 183.509 8.88C183.509 9.024 183.505 9.168 183.497 9.312C183.489 9.712 183.429 10.084 183.317 10.428C183.205 10.764 183.041 11.06 182.825 11.316C182.617 11.564 182.357 11.76 182.045 11.904C181.733 12.048 181.365 12.12 180.941 12.12C180.509 12.12 180.141 12.044 179.837 11.892C179.533 11.732 179.285 11.524 179.093 11.268V13.992C179.093 14.072 179.065 14.14 179.009 14.196C178.961 14.252 178.893 14.28 178.805 14.28H177.785ZM180.497 10.836C180.841 10.836 181.109 10.764 181.301 10.62C181.493 10.468 181.629 10.272 181.709 10.032C181.797 9.792 181.849 9.528 181.865 9.24C181.881 9 181.881 8.76 181.865 8.52C181.849 8.232 181.797 7.968 181.709 7.728C181.629 7.488 181.493 7.296 181.301 7.152C181.109 7 180.841 6.924 180.497 6.924C180.169 6.924 179.901 7 179.693 7.152C179.493 7.304 179.345 7.5 179.249 7.74C179.161 7.972 179.109 8.212 179.093 8.46C179.085 8.604 179.081 8.756 179.081 8.916C179.081 9.076 179.085 9.232 179.093 9.384C179.101 9.624 179.157 9.856 179.261 10.08C179.365 10.296 179.517 10.476 179.717 10.62C179.917 10.764 180.177 10.836 180.497 10.836ZM187.616 12.12C186.976 12.12 186.436 12.008 185.996 11.784C185.564 11.56 185.232 11.244 185 10.836C184.776 10.428 184.648 9.952 184.616 9.408C184.608 9.264 184.604 9.088 184.604 8.88C184.604 8.672 184.608 8.496 184.616 8.352C184.648 7.8 184.78 7.324 185.012 6.924C185.252 6.516 185.588 6.2 186.02 5.976C186.46 5.752 186.992 5.64 187.616 5.64C188.24 5.64 188.768 5.752 189.2 5.976C189.64 6.2 189.976 6.516 190.208 6.924C190.448 7.324 190.584 7.8 190.616 8.352C190.624 8.496 190.628 8.672 190.628 8.88C190.628 9.088 190.624 9.264 190.616 9.408C190.584 9.952 190.452 10.428 190.22 10.836C189.996 11.244 189.664 11.56 189.224 11.784C188.792 12.008 188.256 12.12 187.616 12.12ZM187.616 10.932C188.04 10.932 188.368 10.8 188.6 10.536C188.832 10.264 188.96 9.868 188.984 9.348C188.992 9.228 188.996 9.072 188.996 8.88C188.996 8.688 188.992 8.532 188.984 8.412C188.96 7.9 188.832 7.508 188.6 7.236C188.368 6.964 188.04 6.828 187.616 6.828C187.192 6.828 186.864 6.964 186.632 7.236C186.4 7.508 186.272 7.9 186.248 8.412C186.24 8.532 186.236 8.688 186.236 8.88C186.236 9.072 186.24 9.228 186.248 9.348C186.272 9.868 186.4 10.264 186.632 10.536C186.864 10.8 187.192 10.932 187.616 10.932ZM192.234 12C192.162 12 192.098 11.972 192.042 11.916C191.986 11.86 191.958 11.796 191.958 11.724V6.048C191.958 5.968 191.986 5.9 192.042 5.844C192.098 5.788 192.166 5.76 192.246 5.76H193.242C193.33 5.76 193.398 5.788 193.446 5.844C193.502 5.9 193.53 5.968 193.53 6.048V10.788L193.11 10.488L196.41 5.952C196.45 5.896 196.494 5.852 196.542 5.82C196.59 5.78 196.654 5.76 196.734 5.76H197.646C197.718 5.76 197.782 5.788 197.838 5.844C197.894 5.892 197.922 5.952 197.922 6.024V11.712C197.922 11.792 197.894 11.86 197.838 11.916C197.782 11.972 197.714 12 197.634 12H196.638C196.55 12 196.478 11.972 196.422 11.916C196.374 11.86 196.35 11.792 196.35 11.712V7.188L196.794 7.248L193.47 11.808C193.438 11.856 193.394 11.9 193.338 11.94C193.29 11.98 193.226 12 193.146 12H192.234ZM195.006 4.944C194.526 4.944 194.142 4.868 193.854 4.716C193.566 4.564 193.358 4.368 193.23 4.128C193.11 3.88 193.05 3.616 193.05 3.336C193.05 3.272 193.07 3.22 193.11 3.18C193.15 3.132 193.206 3.108 193.278 3.108H193.962C194.034 3.108 194.09 3.132 194.13 3.18C194.17 3.22 194.19 3.272 194.19 3.336C194.19 3.512 194.246 3.672 194.358 3.816C194.47 3.952 194.686 4.02 195.006 4.02C195.342 4.02 195.562 3.952 195.666 3.816C195.77 3.672 195.822 3.512 195.822 3.336C195.822 3.272 195.842 3.22 195.882 3.18C195.922 3.132 195.978 3.108 196.05 3.108H196.746C196.818 3.108 196.874 3.132 196.914 3.18C196.954 3.22 196.974 3.272 196.974 3.336C196.974 3.616 196.91 3.88 196.782 4.128C196.654 4.368 196.446 4.564 196.158 4.716C195.878 4.868 195.494 4.944 195.006 4.944ZM202.134 12.12C201.558 12.12 201.05 12.012 200.61 11.796C200.178 11.58 199.838 11.268 199.59 10.86C199.35 10.444 199.218 9.944 199.194 9.36C199.186 9.24 199.182 9.084 199.182 8.892C199.182 8.692 199.186 8.528 199.194 8.4C199.218 7.816 199.35 7.32 199.59 6.912C199.838 6.496 200.178 6.18 200.61 5.964C201.05 5.748 201.558 5.64 202.134 5.64C202.646 5.64 203.082 5.712 203.442 5.856C203.802 6 204.098 6.18 204.33 6.396C204.562 6.612 204.734 6.84 204.846 7.08C204.966 7.312 205.03 7.524 205.038 7.716C205.046 7.804 205.018 7.876 204.954 7.932C204.898 7.98 204.83 8.004 204.75 8.004H203.694C203.614 8.004 203.55 7.984 203.502 7.944C203.462 7.904 203.422 7.844 203.382 7.764C203.262 7.444 203.102 7.22 202.902 7.092C202.71 6.956 202.462 6.888 202.158 6.888C201.758 6.888 201.438 7.016 201.198 7.272C200.966 7.52 200.842 7.916 200.826 8.46C200.81 8.764 200.81 9.044 200.826 9.3C200.842 9.852 200.966 10.252 201.198 10.5C201.438 10.748 201.758 10.872 202.158 10.872C202.47 10.872 202.722 10.808 202.914 10.68C203.106 10.544 203.262 10.316 203.382 9.996C203.422 9.916 203.462 9.856 203.502 9.816C203.55 9.776 203.614 9.756 203.694 9.756H204.75C204.83 9.756 204.898 9.784 204.954 9.84C205.018 9.888 205.046 9.956 205.038 10.044C205.03 10.188 204.99 10.352 204.918 10.536C204.854 10.712 204.746 10.896 204.594 11.088C204.45 11.272 204.266 11.444 204.042 11.604C203.818 11.756 203.546 11.88 203.226 11.976C202.914 12.072 202.55 12.12 202.134 12.12ZM208.198 12C208.11 12 208.038 11.972 207.982 11.916C207.934 11.86 207.91 11.792 207.91 11.712V7.032H205.954C205.866 7.032 205.794 7.004 205.738 6.948C205.69 6.892 205.666 6.824 205.666 6.744V6.048C205.666 5.968 205.69 5.9 205.738 5.844C205.794 5.788 205.866 5.76 205.954 5.76H211.402C211.49 5.76 211.562 5.788 211.618 5.844C211.674 5.9 211.702 5.968 211.702 6.048V6.744C211.702 6.824 211.674 6.892 211.618 6.948C211.562 7.004 211.49 7.032 211.402 7.032H209.458V11.712C209.458 11.792 209.43 11.86 209.374 11.916C209.318 11.972 209.25 12 209.17 12H208.198ZM212.941 12C212.861 12 212.793 11.972 212.737 11.916C212.681 11.86 212.653 11.792 212.653 11.712V6.048C212.653 5.968 212.681 5.9 212.737 5.844C212.793 5.788 212.861 5.76 212.941 5.76H215.605C216.453 5.76 217.081 5.916 217.489 6.228C217.897 6.54 218.101 6.96 218.101 7.488C218.101 7.824 218.037 8.084 217.909 8.268C217.781 8.452 217.605 8.612 217.381 8.748C217.661 8.876 217.877 9.072 218.029 9.336C218.189 9.592 218.269 9.876 218.269 10.188C218.269 10.764 218.053 11.212 217.621 11.532C217.197 11.844 216.569 12 215.737 12H212.941ZM214.189 10.92H215.629C215.949 10.92 216.205 10.86 216.397 10.74C216.589 10.62 216.685 10.432 216.685 10.176C216.685 9.912 216.597 9.72 216.421 9.6C216.245 9.48 215.981 9.42 215.629 9.42H214.189V10.92ZM214.189 8.304H215.581C215.901 8.304 216.153 8.24 216.337 8.112C216.521 7.976 216.613 7.78 216.613 7.524C216.613 7.268 216.517 7.092 216.325 6.996C216.141 6.892 215.893 6.84 215.581 6.84H214.189V8.304Z" fill="white"/>
    <defs>
        <clipPath id="clip0_2104_884">
            <rect width="21.6126" height="16" fill="white" transform="translate(0.693604)"/>
        </clipPath>
    </defs>
    <script xmlns=""/><script xmlns=""/></svg>
