<svg xmlns="http://www.w3.org/2000/svg" width="90" height="23" viewBox="0 0 90 23" fill="none"><script xmlns=""/><script xmlns=""/>
    <path d="M13.3823 10.4224C13.392 9.67119 13.5925 8.93465 13.9652 8.28129C14.3378 7.62793 14.8704 7.07899 15.5135 6.68553C15.105 6.10489 14.566 5.62704 13.9395 5.28994C13.3129 4.95284 12.616 4.76578 11.904 4.74362C10.3854 4.58498 8.91309 5.64797 8.1392 5.64797C7.35034 5.64797 6.15883 4.75937 4.87577 4.78564C4.04585 4.81232 3.23702 5.05249 2.5281 5.48274C1.81918 5.913 1.23434 6.51866 0.830571 7.24072C-0.91849 10.2543 0.386152 14.6832 2.06161 17.1192C2.89987 18.312 3.87956 19.6444 5.16147 19.5972C6.41589 19.5454 6.88439 18.8011 8.39859 18.8011C9.89873 18.8011 10.3383 19.5972 11.6462 19.5671C12.9923 19.5454 13.8403 18.369 14.6492 17.1649C15.2515 16.315 15.7149 15.3756 16.0224 14.3816C15.2404 14.0525 14.573 13.5015 14.1035 12.7975C13.6341 12.0934 13.3832 11.2674 13.3823 10.4224V10.4224Z" fill="white"/>
    <path d="M10.912 3.14156C11.6459 2.26477 12.0075 1.13781 11.9199 0C10.7986 0.117198 9.76288 0.650501 9.01904 1.49365C8.65535 1.90555 8.37681 2.38474 8.19933 2.90383C8.02185 3.42293 7.94892 3.97174 7.9847 4.5189C8.54554 4.52465 9.10037 4.40367 9.60742 4.1651C10.1145 3.92652 10.5605 3.57655 10.912 3.14156Z" fill="white"/>
    <path d="M29.2391 16.5778H24.9583L23.9303 19.5986H22.1171L26.1718 8.42236H28.0556L32.1103 19.5986H30.2662L29.2391 16.5778ZM25.4017 15.1838H28.7949L27.1222 10.2813H27.0753L25.4017 15.1838Z" fill="white"/>
    <path d="M40.867 15.5247C40.867 18.0568 39.5052 19.6836 37.45 19.6836C36.9294 19.7107 36.4116 19.5914 35.956 19.3393C35.5004 19.0871 35.1253 18.7124 34.8738 18.258H34.8349V22.294H33.1542V11.45H34.781V12.8053H34.8119C35.0751 12.3531 35.4565 11.9803 35.9156 11.7267C36.3747 11.473 36.8943 11.3479 37.4191 11.3648C39.4972 11.3648 40.867 12.9996 40.867 15.5247ZM39.1395 15.5247C39.1395 13.875 38.2828 12.7904 36.9757 12.7904C35.6916 12.7904 34.8278 13.8978 34.8278 15.5247C34.8278 17.1665 35.6916 18.266 36.9757 18.266C38.2828 18.266 39.1395 17.1893 39.1395 15.5247Z" fill="white"/>
    <path d="M49.879 15.5246C49.879 18.0568 48.5172 19.6836 46.462 19.6836C45.9414 19.7107 45.4236 19.5914 44.968 19.3393C44.5124 19.0871 44.1373 18.7124 43.8858 18.258H43.8469V22.294H42.1662V11.45H43.793V12.8053H43.8239C44.0871 12.3531 44.4685 11.9803 44.9275 11.7267C45.3866 11.473 45.9062 11.3479 46.4311 11.3648C48.5092 11.3648 49.879 12.9995 49.879 15.5246ZM48.1515 15.5246C48.1515 13.8749 47.2948 12.7904 45.9877 12.7904C44.7036 12.7904 43.8398 13.8978 43.8398 15.5246C43.8398 17.1664 44.7036 18.266 45.9877 18.266C47.2948 18.266 48.1515 17.1893 48.1515 15.5246H48.1515Z" fill="white"/>
    <path d="M55.8352 16.4844C55.9597 17.5927 57.0416 18.3204 58.52 18.3204C59.9367 18.3204 60.9559 17.5927 60.9559 16.5934C60.9559 15.7259 60.3412 15.2065 58.8857 14.8505L57.4302 14.5016C55.368 14.0059 54.4106 13.0461 54.4106 11.4887C54.4106 9.56035 56.0993 8.23584 58.4971 8.23584C60.8702 8.23584 62.497 9.56035 62.5518 11.4887H60.8552C60.7536 10.3733 59.8271 9.7001 58.4732 9.7001C57.1193 9.7001 56.1928 10.3813 56.1928 11.3727C56.1928 12.1628 56.7846 12.6277 58.2321 12.9837L59.4694 13.286C61.7736 13.8283 62.731 14.7494 62.731 16.3842C62.731 18.4751 61.0574 19.7846 58.3955 19.7846C55.9049 19.7846 54.2233 18.5058 54.1147 16.4843L55.8352 16.4844Z" fill="white"/>
    <path d="M66.3583 9.52197V11.4503H67.9153V12.7748H66.3583V17.2669C66.3583 17.9647 66.67 18.2899 67.3545 18.2899C67.5393 18.2867 67.7239 18.2738 67.9074 18.2512V19.5678C67.5996 19.6251 67.2868 19.651 66.9738 19.6452C65.3161 19.6452 64.6696 19.0256 64.6696 17.4453V12.7748H63.4791V11.4503H64.6696V9.52197H66.3583Z" fill="white"/>
    <path d="M68.817 15.5249C68.817 12.9611 70.3343 11.3501 72.7004 11.3501C75.0743 11.3501 76.5846 12.9611 76.5846 15.5249C76.5846 18.0957 75.0823 19.6997 72.7004 19.6997C70.3193 19.6997 68.817 18.0957 68.817 15.5249ZM74.8721 15.5249C74.8721 13.7662 74.0622 12.7282 72.7004 12.7282C71.3385 12.7282 70.5295 13.7741 70.5295 15.5249C70.5295 17.2906 71.3385 18.3207 72.7004 18.3207C74.0622 18.3207 74.8721 17.2906 74.8721 15.5249H74.8721Z" fill="white"/>
    <path d="M77.9703 11.45H79.5732V12.8369H79.6121C79.7206 12.4037 79.9756 12.0209 80.3342 11.7528C80.6929 11.4847 81.1333 11.3477 81.5816 11.3647C81.7753 11.364 81.9684 11.385 82.1574 11.4271V12.9916C81.9129 12.9172 81.6578 12.8831 81.4023 12.8905C81.1581 12.8806 80.9147 12.9235 80.6887 13.0161C80.4628 13.1087 80.2597 13.2488 80.0933 13.4269C79.9269 13.605 79.8012 13.8169 79.7249 14.0479C79.6485 14.2789 79.6233 14.5236 79.6509 14.7652V19.5983H77.9702L77.9703 11.45Z" fill="white"/>
    <path d="M89.9062 17.2054C89.6801 18.6846 88.2326 19.6997 86.3806 19.6997C83.9986 19.6997 82.5202 18.1115 82.5202 15.5636C82.5202 13.0077 84.0066 11.3501 86.3099 11.3501C88.5753 11.3501 89.9998 12.8987 89.9998 15.3693V15.9424H84.2168V16.0435C84.1901 16.3433 84.2278 16.6454 84.3275 16.9297C84.4271 17.2139 84.5864 17.4739 84.7947 17.6921C85.003 17.9104 85.2557 18.0821 85.5358 18.1958C85.8159 18.3095 86.1171 18.3625 86.4194 18.3515C86.8166 18.3885 87.2152 18.297 87.5559 18.0905C87.8966 17.884 88.1612 17.5735 88.3103 17.2054L89.9062 17.2054ZM84.2247 14.7734H88.3183C88.3334 14.5038 88.2923 14.234 88.1976 13.9809C88.1029 13.7278 87.9567 13.4969 87.7681 13.3027C87.5796 13.1085 87.3527 12.9552 87.1017 12.8524C86.8508 12.7496 86.5812 12.6996 86.3099 12.7054C86.0362 12.7037 85.7649 12.7561 85.5117 12.8593C85.2584 12.9626 85.0282 13.1148 84.8343 13.307C84.6405 13.4993 84.4868 13.7279 84.3822 13.9796C84.2775 14.2313 84.224 14.5011 84.2247 14.7734V14.7734Z" fill="white"/>
    <path d="M27.5207 3.28H28.2411C28.3652 3.2954 28.491 3.28502 28.6108 3.24952C28.7306 3.21402 28.8417 3.15417 28.9372 3.07374C29.0326 2.99332 29.1103 2.89406 29.1654 2.78222C29.2204 2.67039 29.2516 2.5484 29.257 2.42395C29.257 1.92869 28.8831 1.60877 28.2491 1.60877C28.122 1.59107 27.9927 1.59893 27.8687 1.63188C27.7448 1.66482 27.6287 1.72219 27.5273 1.8006C27.426 1.879 27.3414 1.97685 27.2786 2.08837C27.2158 2.19988 27.1761 2.32281 27.1618 2.44988H26.3708C26.3844 2.21921 26.4455 1.9938 26.5503 1.78769C26.6551 1.58158 26.8014 1.39918 26.98 1.25185C27.1586 1.10452 27.3657 0.995403 27.5884 0.931305C27.8111 0.867206 28.0447 0.849495 28.2746 0.879272C29.3355 0.879272 30.0824 1.47121 30.0824 2.32331C30.0849 2.60877 29.9891 2.88645 29.8109 3.10999C29.6328 3.33352 29.3831 3.4894 29.1036 3.55159V3.61487C29.435 3.62952 29.7471 3.77434 29.9716 4.01768C30.1962 4.26102 30.315 4.58308 30.302 4.91345C30.2774 5.15095 30.2056 5.38119 30.0906 5.59065C29.9757 5.80012 29.8199 5.98461 29.6325 6.13331C29.4451 6.282 29.2298 6.39191 28.9992 6.4566C28.7686 6.52128 28.5274 6.53943 28.2896 6.50999C28.0514 6.54236 27.8091 6.52659 27.5771 6.46363C27.3452 6.40066 27.1283 6.29179 26.9394 6.1435C26.7506 5.99521 26.5936 5.81054 26.4779 5.6005C26.3622 5.39046 26.2901 5.15934 26.2659 4.92093H27.0692C27.1177 5.43465 27.5913 5.76603 28.2896 5.76603C28.988 5.76603 29.4439 5.39382 29.4439 4.86911C29.4439 4.33693 29.0145 4.00909 28.2641 4.00909H27.5207V3.28Z" fill="white"/>
    <path d="M31.2146 5.23378C31.2146 4.50429 31.7605 4.08374 32.727 4.02397L33.8284 3.96069V3.61089C33.8284 3.18286 33.5453 2.94116 32.9959 2.94116C32.548 2.94116 32.2384 3.10508 32.1485 3.3916H31.3716C31.4536 2.6955 32.1115 2.24902 33.0338 2.24902C34.0532 2.24902 34.6282 2.75482 34.6282 3.61089V6.37988H33.8548V5.81035H33.7913C33.6625 6.01464 33.4815 6.18119 33.2669 6.29298C33.0524 6.40477 32.8119 6.4578 32.57 6.44665C32.3993 6.46435 32.2268 6.4462 32.0636 6.39337C31.9003 6.34054 31.75 6.25421 31.6223 6.13993C31.4946 6.02566 31.3924 5.88599 31.3222 5.72991C31.2519 5.57384 31.2153 5.40483 31.2146 5.23378V5.23378ZM33.8284 4.88749V4.54868L32.8354 4.61196C32.2754 4.64931 32.0215 4.83915 32.0215 5.19642C32.0215 5.56117 32.3389 5.77342 32.7755 5.77342C32.9034 5.78633 33.0326 5.77347 33.1554 5.73559C33.2782 5.69771 33.3921 5.63559 33.4904 5.55293C33.5886 5.47028 33.6691 5.36877 33.7272 5.25445C33.7853 5.14013 33.8197 5.01533 33.8284 4.88749V4.88749Z" fill="white"/>
    <path d="M36.7578 3.00039V6.37979H35.9553V2.32715H38.6325V3.00035L36.7578 3.00039Z" fill="white"/>
    <path d="M43.4958 4.35196C43.4958 5.63956 42.8424 6.44684 41.8159 6.44684C41.564 6.46399 41.3123 6.40903 41.0906 6.28844C40.869 6.16784 40.6865 5.98662 40.5646 5.76612H40.5011V7.7274H39.6987V2.3274H40.4712V2.99716H40.5311C40.6551 2.76896 40.84 2.57936 41.0654 2.44931C41.2907 2.31925 41.5477 2.2538 41.808 2.26019C42.8424 2.26017 43.4958 3.06392 43.4958 4.35196ZM42.6704 4.35196C42.6704 3.49591 42.2639 2.97867 41.584 2.97867C40.9086 2.97867 40.4862 3.50689 40.4862 4.35548C40.4862 5.20011 40.9085 5.72877 41.5805 5.72877C42.2639 5.72876 42.6704 5.21153 42.6704 4.35196Z" fill="white"/>
    <path d="M44.5645 7.83131V7.14268C44.6514 7.15368 44.7389 7.15867 44.8264 7.15762C44.9974 7.17024 45.167 7.11949 45.3027 7.01511C45.4385 6.91073 45.5307 6.76007 45.5618 6.59204L45.6218 6.39472L44.1501 2.32715H45.0239L46.0434 5.54614H46.1068L47.1227 2.32715H47.9737L46.4578 6.54722C46.1104 7.53335 45.7259 7.84976 44.897 7.84976C44.83 7.84975 44.6395 7.84229 44.5645 7.83131Z" fill="white"/>
    <path d="M48.5989 5.22993H49.3978C49.4763 5.58723 49.8123 5.77353 50.2823 5.77353C50.8166 5.77353 51.1447 5.53886 51.1447 5.17413C51.1447 4.78345 50.8502 4.59713 50.2823 4.59713H49.6738V3.97574H50.2717C50.7567 3.97574 51.0036 3.78986 51.0036 3.45104C51.0036 3.15353 50.7646 2.92634 50.2717 2.92634C49.8228 2.92634 49.4948 3.11619 49.4427 3.43611H48.6694C48.7272 3.0685 48.9275 2.73818 49.2271 2.51621C49.5268 2.29424 49.9018 2.19834 50.2717 2.24914C51.2382 2.24914 51.7911 2.68465 51.7911 3.36931C51.7956 3.55997 51.7343 3.7464 51.6174 3.89742C51.5006 4.04844 51.3352 4.1549 51.1491 4.199V4.26228C51.3707 4.29078 51.5742 4.39937 51.7208 4.56746C51.8674 4.73554 51.947 4.95143 51.9445 5.17414C51.9445 5.94454 51.2867 6.45427 50.2823 6.45427C49.3943 6.45424 48.6729 6.04863 48.5989 5.22993Z" fill="white"/>
    <path d="M53.1001 6.37978V2.32715H53.8955V5.11461H53.959L55.8329 2.32716H56.6283V6.37979H55.8329V3.57741H55.7729L53.8955 6.3798L53.1001 6.37978Z" fill="white"/>
    <path d="M61.0101 3.00035H59.7297V6.37974H58.9264V3.00035H57.6459V2.32715H61.0101V3.00035Z" fill="white"/>
    <path d="M65.3328 5.28572C65.2234 5.65609 64.987 5.9764 64.6648 6.1907C64.3426 6.405 63.9551 6.49967 63.57 6.45817C63.3021 6.46522 63.0359 6.41408 62.7898 6.30831C62.5438 6.20253 62.3238 6.04465 62.1451 5.84563C61.9663 5.6466 61.8332 5.4112 61.7549 5.15576C61.6767 4.90032 61.6551 4.63096 61.6917 4.36638C61.6561 4.10098 61.678 3.83104 61.7561 3.57484C61.8342 3.31863 61.9666 3.08214 62.1444 2.88138C62.3222 2.68061 62.5411 2.52025 62.7865 2.41117C63.0318 2.30208 63.2978 2.24681 63.5665 2.24909C64.6979 2.24909 65.3813 3.01949 65.3813 4.29209V4.57118H62.5101V4.616C62.4974 4.76475 62.516 4.91451 62.5648 5.05565C62.6136 5.19679 62.6915 5.32619 62.7935 5.43553C62.8955 5.54488 63.0193 5.63174 63.157 5.69055C63.2947 5.74936 63.4432 5.77881 63.5929 5.777C63.7848 5.79986 63.9791 5.76536 64.1512 5.67787C64.3233 5.59039 64.4654 5.45388 64.5594 5.28569L65.3328 5.28572ZM62.51 3.97967H64.5629C64.5731 3.84372 64.5546 3.70716 64.5086 3.57876C64.4627 3.45037 64.3903 3.33297 64.2961 3.2341C64.2019 3.13524 64.0881 3.05709 63.9618 3.00469C63.8355 2.95229 63.6997 2.92678 63.5629 2.92982C63.4241 2.92793 63.2863 2.95381 63.1577 3.0059C63.0291 3.058 62.9122 3.13527 62.8141 3.23314C62.7159 3.33101 62.6385 3.4475 62.5862 3.57572C62.534 3.70395 62.5081 3.8413 62.5101 3.97967H62.51Z" fill="white"/>
    <path d="M68.7348 2.32715H70.5681C71.3635 2.32715 71.83 2.72881 71.83 3.35765C71.8312 3.55718 71.7637 3.75109 71.6386 3.90692C71.5136 4.06275 71.3386 4.17105 71.143 4.2137V4.27698C71.3805 4.29193 71.6031 4.39722 71.7649 4.57109C71.9268 4.74496 72.0154 4.97413 72.0125 5.21126C72.0125 5.91834 71.479 6.37977 70.5866 6.37977H68.7348V2.32715ZM69.5302 2.94107V3.99046H70.3256C70.8106 3.99046 71.0425 3.80458 71.0425 3.46181C71.0425 3.14584 70.8406 2.94106 70.4147 2.94106L69.5302 2.94107ZM69.5302 4.57847V5.76588H70.4817C70.9561 5.76588 71.2101 5.55714 71.2101 5.17394C71.2101 4.76833 70.9226 4.57848 70.3812 4.57848L69.5302 4.57847Z" fill="white"/>
    <script xmlns=""/><script xmlns=""/></svg>
