<svg xmlns="http://www.w3.org/2000/svg" width="108" height="24" viewBox="0 0 108 24" fill="none"><script xmlns=""/><script xmlns=""/>
    <path d="M 17.042 0.024 L 6.684 0.024 C 1.804 0.024 0.021 1.814 0.021 6.705 L 0.021 17.092 C 0.021 21.983 1.804 23.771 6.684 23.771 L 17.042 23.771 C 21.919 23.771 23.707 21.983 23.707 17.092 L 23.707 6.706 C 23.708 1.814 21.92 0.024 17.042 0.024 Z" fill="#C8102E" style=""/><path d="M 9.076 6.79 C 9.79 7.503 10.776 7.944 11.865 7.944 C 14.041 7.944 15.808 6.177 15.808 4.001 L 15.808 3.997 L 15.248 3.997 C 15.249 4.026 15.249 4.06 15.249 4.094 C 15.249 5.964 13.732 7.48 11.862 7.48 C 9.993 7.48 8.477 5.964 8.477 4.094 C 8.477 4.06 8.477 4.025 8.478 3.991 L 8.478 3.996 L 7.918 3.996 C 7.919 5.087 8.363 6.074 9.077 6.788 L 9.076 6.79 Z M 5.344 11.899 L 4.71 11.899 L 4.71 13.152 L 3.293 13.152 L 3.293 11.898 L 2.665 11.898 L 2.665 15.003 L 3.293 15.003 L 3.293 13.743 L 4.71 13.743 L 4.71 15.004 L 5.339 15.004 L 5.344 11.899 Z M 7.551 14.45 C 8.005 14.45 8.255 14.18 8.255 13.677 L 8.255 11.897 L 8.883 11.897 L 8.883 13.653 C 8.889 13.698 8.892 13.751 8.892 13.806 C 8.892 14.498 8.332 15.057 7.641 15.057 C 7.606 15.057 7.572 15.056 7.539 15.053 L 7.543 15.053 C 7.508 15.056 7.468 15.058 7.427 15.058 C 6.749 15.058 6.199 14.51 6.199 13.831 C 6.199 13.773 6.203 13.719 6.211 13.664 L 6.21 13.669 L 6.21 11.897 L 6.837 11.897 L 6.837 13.653 C 6.838 14.173 7.092 14.45 7.545 14.45 L 7.551 14.45 Z M 14.809 11.897 L 15.512 14.031 L 16.195 11.897 L 16.848 11.897 L 15.768 15.003 L 15.243 15.003 L 14.54 12.965 L 13.835 15.003 L 13.315 15.003 L 12.231 11.897 L 12.901 11.897 L 13.589 14.03 L 14.296 11.897 L 14.809 11.897 Z M 19.116 13.669 L 17.975 13.669 L 17.975 14.437 L 19.689 14.437 L 19.689 15.004 L 17.356 15.004 L 17.356 11.897 L 19.636 11.897 L 19.636 12.461 L 17.973 12.461 L 17.973 13.098 L 19.116 13.098 L 19.116 13.669 Z M 21.062 15.002 L 20.443 15.002 L 20.443 11.897 L 21.063 11.897 L 21.062 15.002 Z M 9.841 15.002 L 10.121 14.356 L 11.538 14.356 L 11.819 15.002 L 12.476 15.002 L 11.116 11.897 L 10.562 11.897 L 9.198 15.001 L 9.841 15.002 Z M 11.298 13.796 L 10.354 13.796 L 10.82 12.683 L 11.298 13.796 Z" fill="#fff" style=""/><path d="M 59.868 6.726 L 59.868 3.8 C 59.868 3.432 59.881 3.011 59.907 2.536 L 57.245 6.725 L 56.223 6.725 L 56.223 1.407 L 57.074 1.407 L 57.074 4.446 C 57.074 4.776 57.063 5.139 57.041 5.531 L 59.667 1.409 L 60.719 1.409 L 60.719 6.727 L 59.868 6.726 Z M 57.8 0.941 C 57.619 0.847 57.471 0.713 57.365 0.549 L 57.363 0.545 C 57.267 0.395 57.198 0.219 57.171 0.029 L 57.17 0.022 L 57.83 0.022 C 57.856 0.352 58.128 0.61 58.462 0.61 C 58.482 0.61 58.501 0.609 58.521 0.608 L 58.519 0.608 C 58.535 0.609 58.552 0.61 58.571 0.61 C 58.907 0.61 59.181 0.353 59.211 0.025 L 59.211 0.023 L 59.873 0.023 C 59.844 0.222 59.776 0.398 59.675 0.553 L 59.679 0.549 C 59.57 0.717 59.422 0.853 59.248 0.943 L 59.241 0.946 C 59.031 1.042 58.785 1.1 58.524 1.1 C 58.264 1.1 58.018 1.042 57.797 0.941 L 57.806 0.946 L 57.8 0.941 Z M 30.783 5.526 C 30.985 5.924 31.29 6.244 31.663 6.458 L 31.674 6.464 C 32.051 6.675 32.503 6.8 32.984 6.8 C 33.01 6.8 33.037 6.8 33.064 6.799 L 33.061 6.799 C 33.081 6.799 33.106 6.8 33.13 6.8 C 33.633 6.8 34.105 6.672 34.517 6.449 L 34.502 6.457 C 34.906 6.23 35.229 5.897 35.437 5.495 L 35.443 5.482 C 35.653 5.071 35.775 4.584 35.775 4.069 C 35.775 4.043 35.775 4.017 35.774 3.991 L 35.774 3.994 C 35.774 3.974 35.775 3.949 35.775 3.925 C 35.775 3.44 35.663 2.984 35.463 2.576 L 35.471 2.593 C 35.272 2.2 34.97 1.881 34.602 1.666 L 34.592 1.661 C 34.213 1.45 33.762 1.327 33.283 1.327 C 33.257 1.327 33.232 1.327 33.206 1.329 L 33.209 1.329 C 33.186 1.327 33.159 1.327 33.131 1.327 C 32.627 1.327 32.151 1.455 31.734 1.679 L 31.75 1.671 C 31.342 1.897 31.019 2.23 30.81 2.631 L 30.805 2.644 C 30.597 3.052 30.475 3.535 30.475 4.045 C 30.475 4.07 30.475 4.095 30.476 4.119 L 30.476 4.116 C 30.476 4.137 30.475 4.163 30.475 4.187 C 30.475 4.673 30.589 5.133 30.792 5.541 L 30.783 5.524 L 30.783 5.526 Z M 34.625 5.102 C 34.503 5.397 34.304 5.64 34.053 5.812 L 34.046 5.815 C 33.798 5.975 33.497 6.069 33.171 6.069 C 33.151 6.069 33.13 6.069 33.111 6.068 L 33.113 6.068 C 33.098 6.068 33.081 6.069 33.064 6.069 C 32.735 6.069 32.428 5.97 32.174 5.8 L 32.18 5.803 C 31.93 5.624 31.737 5.38 31.624 5.094 L 31.619 5.084 C 31.507 4.795 31.442 4.46 31.442 4.11 L 31.442 4.054 L 31.442 4.056 C 31.442 4.04 31.44 4.022 31.44 4.003 C 31.44 3.659 31.509 3.334 31.634 3.037 L 31.628 3.053 C 31.752 2.753 31.953 2.504 32.206 2.325 L 32.213 2.322 C 32.483 2.154 32.81 2.054 33.162 2.054 C 33.513 2.054 33.84 2.154 34.119 2.327 L 34.112 2.322 C 34.354 2.5 34.541 2.744 34.646 3.028 L 34.649 3.038 C 34.756 3.326 34.816 3.658 34.816 4.005 C 34.816 4.026 34.816 4.048 34.815 4.068 L 34.815 4.065 L 34.815 4.109 C 34.815 4.467 34.745 4.808 34.616 5.119 L 34.623 5.102 L 34.625 5.102 Z M 77.615 19.422 L 77.615 9.929 L 79.442 9.782 L 79.442 19.095 C 79.438 19.126 79.437 19.162 79.437 19.199 C 79.437 19.431 79.503 19.647 79.617 19.83 L 79.615 19.826 C 79.739 19.957 79.913 20.04 80.109 20.04 C 80.129 20.04 80.151 20.039 80.171 20.037 L 80.169 20.037 C 80.344 20.027 80.509 19.998 80.665 19.95 L 80.65 19.954 L 80.866 21.27 C 80.683 21.342 80.47 21.4 80.25 21.435 L 80.231 21.437 C 80.019 21.476 79.772 21.499 79.523 21.5 L 79.522 21.5 C 78.25 21.497 77.614 20.804 77.614 19.421 L 77.615 19.422 Z M 60.981 20.837 C 60.193 20.399 59.567 19.754 59.165 18.975 L 59.154 18.95 C 58.748 18.147 58.511 17.2 58.511 16.197 C 58.511 16.145 58.512 16.093 58.513 16.042 L 58.513 16.051 C 58.511 15.994 58.511 15.928 58.511 15.861 C 58.511 14.8 58.783 13.801 59.261 12.933 L 59.243 12.964 C 59.714 12.142 60.398 11.489 61.22 11.07 L 61.247 11.057 C 62.049 10.654 62.993 10.42 63.993 10.42 C 64.027 10.42 64.059 10.42 64.093 10.421 L 64.089 10.421 L 64.117 10.421 C 64.736 10.421 65.338 10.496 65.913 10.637 L 65.862 10.626 C 66.46 10.77 66.983 10.962 67.477 11.206 L 67.433 11.187 L 66.966 12.601 C 66.155 12.18 65.197 11.923 64.182 11.901 L 64.175 11.901 C 64.148 11.9 64.117 11.9 64.087 11.9 C 63.398 11.9 62.753 12.078 62.191 12.392 L 62.211 12.381 C 61.641 12.711 61.19 13.194 60.906 13.771 L 60.898 13.789 C 60.601 14.407 60.429 15.132 60.429 15.898 C 60.429 15.948 60.43 15.996 60.431 16.045 L 60.431 16.039 C 60.431 16.068 60.43 16.103 60.43 16.136 C 60.43 16.837 60.562 17.508 60.803 18.124 L 60.791 18.086 C 61.024 18.674 61.417 19.157 61.915 19.494 L 61.926 19.501 C 62.446 19.83 63.077 20.025 63.754 20.025 C 63.8 20.025 63.847 20.024 63.892 20.023 L 63.886 20.023 C 64.265 20.022 64.634 19.987 64.994 19.923 L 64.955 19.93 C 65.336 19.867 65.673 19.777 65.996 19.656 L 65.957 19.669 L 65.957 17.496 L 63.469 17.496 L 63.469 16.058 L 67.738 16.058 L 67.738 20.595 C 67.187 20.86 66.542 21.088 65.869 21.244 L 65.805 21.257 C 65.2 21.401 64.505 21.485 63.79 21.486 L 63.789 21.486 C 63.741 21.487 63.684 21.489 63.626 21.489 C 62.66 21.489 61.751 21.248 60.952 20.826 L 60.983 20.841 L 60.981 20.837 Z M 37.917 18.459 L 33.609 18.459 L 32.556 21.353 L 30.66 21.353 L 34.875 10.566 L 36.665 10.566 L 40.98 21.349 L 38.994 21.349 L 37.917 18.459 Z M 34.152 16.997 L 37.363 16.997 L 36.212 13.907 C 36.055 13.481 35.899 13.01 35.745 12.492 C 35.606 12.949 35.455 13.415 35.293 13.892 L 34.152 16.997 Z M 41.837 15.282 C 41.837 14.686 41.818 14.031 41.779 13.314 L 43.501 13.314 C 43.56 13.603 43.607 13.954 43.634 14.311 L 43.637 14.341 C 44.225 13.634 45.103 13.184 46.085 13.171 L 46.087 13.171 L 46.131 13.171 C 47.267 13.171 48.243 13.859 48.668 14.839 L 48.675 14.857 C 48.944 15.46 49.099 16.162 49.099 16.902 C 49.099 16.964 49.098 17.027 49.096 17.088 L 49.096 17.079 C 49.097 17.123 49.098 17.175 49.098 17.228 C 49.098 18.045 48.92 18.819 48.601 19.517 L 48.614 19.483 C 48.323 20.118 47.862 20.634 47.29 20.986 L 47.275 20.995 C 46.725 21.319 46.065 21.51 45.36 21.51 C 45.333 21.51 45.307 21.51 45.281 21.509 L 45.284 21.509 C 44.706 21.506 44.155 21.402 43.643 21.215 L 43.677 21.226 L 43.677 24.538 L 41.842 24.694 L 41.837 15.282 Z M 46.66 19.388 C 47.017 18.832 47.228 18.153 47.228 17.426 C 47.228 17.339 47.224 17.252 47.219 17.168 L 47.22 17.18 C 47.227 17.101 47.23 17.01 47.23 16.918 C 47.23 16.291 47.053 15.707 46.745 15.211 L 46.753 15.225 C 46.481 14.855 46.048 14.618 45.559 14.618 C 45.544 14.618 45.529 14.618 45.515 14.619 L 45.517 14.619 L 45.502 14.619 C 45.145 14.619 44.809 14.712 44.518 14.877 L 44.529 14.872 C 44.199 15.063 43.915 15.287 43.669 15.547 L 43.668 15.55 L 43.668 19.853 C 43.851 19.941 44.066 20.014 44.288 20.061 L 44.308 20.064 C 44.524 20.114 44.772 20.141 45.026 20.141 L 45.027 20.141 C 45.062 20.144 45.103 20.146 45.144 20.146 C 45.763 20.146 46.312 19.85 46.66 19.393 L 46.663 19.389 L 46.66 19.388 Z M 50.205 13.317 C 50.245 14.032 50.265 14.687 50.265 15.283 L 50.265 24.707 L 52.105 24.544 L 52.105 21.229 C 52.582 21.404 53.134 21.507 53.709 21.509 L 53.71 21.509 C 53.733 21.509 53.759 21.51 53.786 21.51 C 54.491 21.51 55.152 21.319 55.718 20.984 L 55.7 20.993 C 56.287 20.632 56.748 20.117 57.032 19.502 L 57.042 19.482 C 57.345 18.82 57.522 18.047 57.522 17.232 C 57.522 17.178 57.521 17.124 57.52 17.071 L 57.52 17.079 C 57.522 17.028 57.522 16.967 57.522 16.906 C 57.522 16.166 57.367 15.461 57.087 14.823 L 57.1 14.857 C 56.669 13.858 55.693 13.171 54.555 13.171 L 54.509 13.171 L 54.512 13.171 C 53.527 13.185 52.652 13.635 52.066 14.337 L 52.062 14.341 C 52.035 13.956 51.988 13.604 51.92 13.26 L 51.93 13.314 L 50.205 13.317 Z M 55.65 17.181 C 55.656 17.253 55.658 17.34 55.658 17.427 C 55.658 18.154 55.446 18.832 55.081 19.403 L 55.091 19.388 C 54.739 19.85 54.188 20.146 53.569 20.146 C 53.53 20.146 53.491 20.144 53.453 20.141 L 53.459 20.141 L 53.458 20.141 C 53.202 20.141 52.953 20.114 52.715 20.06 L 52.736 20.064 C 52.496 20.014 52.282 19.942 52.081 19.845 L 52.098 19.853 L 52.098 15.548 C 52.345 15.286 52.628 15.06 52.94 14.88 L 52.959 14.871 C 53.238 14.712 53.573 14.618 53.931 14.618 L 53.948 14.618 L 53.947 14.618 C 53.959 14.618 53.974 14.617 53.988 14.617 C 54.477 14.617 54.911 14.854 55.179 15.221 L 55.182 15.225 C 55.479 15.706 55.656 16.289 55.656 16.913 C 55.656 17.006 55.653 17.098 55.644 17.189 L 55.646 17.178 L 55.65 17.181 Z M 74.219 20.284 C 74.235 20.673 74.281 21.038 74.352 21.394 L 74.345 21.349 L 76.078 21.349 C 76.037 20.674 76.018 20.169 76.018 19.838 L 76.018 16.639 C 76.02 16.579 76.023 16.508 76.023 16.438 C 76.023 15.759 75.87 15.115 75.598 14.539 L 75.61 14.565 C 75.364 14.082 74.967 13.705 74.483 13.488 L 74.468 13.481 C 73.98 13.281 73.415 13.164 72.821 13.164 C 72.78 13.164 72.737 13.164 72.695 13.166 L 72.702 13.166 L 72.665 13.166 C 72.077 13.166 71.507 13.233 70.959 13.363 L 71.009 13.352 C 70.515 13.46 70.085 13.601 69.675 13.78 L 69.72 13.761 L 70.011 15.102 C 70.342 14.945 70.73 14.805 71.133 14.701 L 71.179 14.693 C 71.554 14.589 71.986 14.527 72.432 14.523 L 72.434 14.523 C 72.467 14.519 72.509 14.518 72.549 14.518 C 73.003 14.518 73.418 14.686 73.736 14.963 L 73.733 14.961 C 74.021 15.31 74.196 15.761 74.196 16.253 C 74.196 16.326 74.193 16.399 74.185 16.471 L 74.186 16.462 L 74.186 16.618 C 73.749 16.551 73.247 16.513 72.736 16.513 L 72.727 16.513 C 72.609 16.503 72.474 16.495 72.335 16.495 C 71.439 16.495 70.606 16.762 69.91 17.22 L 69.926 17.21 C 69.411 17.634 69.084 18.272 69.084 18.986 C 69.084 19.018 69.086 19.049 69.087 19.081 L 69.087 19.075 C 69.086 19.101 69.086 19.132 69.086 19.162 C 69.086 19.622 69.21 20.053 69.425 20.423 L 69.418 20.411 C 69.634 20.767 69.941 21.048 70.308 21.226 L 70.32 21.231 C 70.679 21.402 71.099 21.501 71.543 21.501 L 71.58 21.501 L 71.578 21.501 L 71.632 21.501 C 72.172 21.501 72.681 21.371 73.13 21.14 L 73.112 21.149 C 73.545 20.927 73.912 20.637 74.211 20.289 L 74.216 20.284 L 74.219 20.284 Z M 74.184 19.175 C 73.926 19.457 73.616 19.688 73.268 19.853 L 73.25 19.859 C 72.925 20.027 72.54 20.127 72.133 20.135 L 72.131 20.135 C 72.112 20.136 72.091 20.136 72.069 20.136 C 71.764 20.136 71.485 20.024 71.27 19.84 L 71.271 19.841 C 71.074 19.639 70.951 19.363 70.951 19.058 C 70.951 19.024 70.952 18.992 70.957 18.959 L 70.957 18.963 C 70.956 18.948 70.956 18.931 70.956 18.914 C 70.956 18.535 71.125 18.199 71.393 17.972 L 71.395 17.971 C 71.771 17.729 72.231 17.586 72.724 17.586 C 72.81 17.586 72.892 17.591 72.975 17.599 L 72.965 17.598 C 73.404 17.605 73.829 17.634 74.247 17.685 L 74.19 17.679 L 74.184 19.175 Z M 82.182 9.927 L 82.182 19.422 C 82.182 20.805 82.818 21.498 84.09 21.501 C 84.34 21.5 84.586 21.478 84.824 21.435 L 84.799 21.438 C 85.038 21.401 85.252 21.343 85.455 21.265 L 85.433 21.272 L 85.219 19.955 C 85.077 19.998 84.911 20.028 84.74 20.037 L 84.736 20.037 C 84.717 20.039 84.696 20.039 84.675 20.039 C 84.48 20.039 84.306 19.956 84.183 19.825 C 84.069 19.646 84.003 19.43 84.003 19.197 C 84.003 19.16 84.004 19.123 84.007 19.088 L 84.007 19.093 L 84.007 9.781 L 82.182 9.927 Z M 93.037 17.568 L 87.792 17.568 C 87.878 19.247 88.678 20.087 90.193 20.087 C 90.603 20.085 91.001 20.034 91.383 19.942 L 91.348 19.949 C 91.785 19.845 92.163 19.717 92.524 19.559 L 92.479 19.576 L 92.88 20.833 C 92.028 21.246 91.026 21.487 89.968 21.487 C 89.93 21.487 89.891 21.487 89.853 21.486 L 89.858 21.486 C 89.816 21.487 89.766 21.489 89.716 21.489 C 88.982 21.489 88.29 21.309 87.68 20.993 L 87.705 21.004 C 87.132 20.686 86.678 20.208 86.4 19.63 L 86.392 19.612 C 86.114 19.011 85.952 18.31 85.952 17.57 C 85.952 17.516 85.953 17.464 85.954 17.411 L 85.954 17.418 C 85.953 17.377 85.952 17.328 85.952 17.279 C 85.952 16.498 86.125 15.758 86.434 15.093 L 86.421 15.124 C 86.711 14.512 87.159 14.014 87.713 13.669 L 87.727 13.661 C 88.257 13.343 88.896 13.155 89.579 13.155 C 89.606 13.155 89.632 13.155 89.658 13.156 L 89.655 13.156 C 89.69 13.155 89.731 13.154 89.772 13.154 C 90.434 13.154 91.051 13.353 91.565 13.696 L 91.553 13.69 C 92.053 14.042 92.441 14.524 92.673 15.085 L 92.682 15.106 C 92.912 15.665 93.044 16.31 93.044 16.989 C 93.044 17.018 93.044 17.048 93.043 17.078 L 93.043 17.073 L 93.037 17.568 Z M 91.246 16.397 L 91.246 16.364 C 91.246 15.83 91.065 15.341 90.761 14.951 L 90.765 14.956 C 90.492 14.66 90.105 14.476 89.674 14.476 C 89.653 14.476 89.632 14.476 89.611 14.477 L 89.614 14.477 C 89.602 14.477 89.586 14.476 89.568 14.476 C 89.127 14.476 88.728 14.662 88.447 14.96 L 88.446 14.961 C 88.112 15.349 87.892 15.843 87.841 16.387 L 87.84 16.398 L 91.246 16.397 Z M 94.455 13.318 C 94.494 14.221 94.514 14.893 94.514 15.335 L 94.514 21.354 L 96.342 21.354 L 96.342 16.188 C 96.631 15.765 96.972 15.406 97.363 15.108 L 97.375 15.099 C 97.678 14.892 98.056 14.769 98.46 14.769 L 98.506 14.769 L 98.503 14.769 L 98.531 14.769 C 98.732 14.769 98.928 14.799 99.111 14.854 L 99.097 14.851 L 99.328 13.258 C 99.121 13.198 98.882 13.165 98.636 13.165 L 98.597 13.165 L 98.599 13.165 L 98.562 13.165 C 98.231 13.165 97.921 13.248 97.65 13.397 L 97.66 13.391 C 97.379 13.547 97.141 13.742 96.944 13.974 L 96.941 13.977 C 96.718 14.24 96.511 14.53 96.329 14.837 L 96.313 14.866 C 96.302 14.672 96.285 14.421 96.258 14.109 C 96.232 13.798 96.202 13.534 96.172 13.309 L 94.455 13.318 Z M 100.426 24.636 C 100.173 24.595 99.949 24.539 99.735 24.467 L 99.767 24.477 L 100.1 23.137 C 100.223 23.17 100.38 23.205 100.566 23.237 C 100.727 23.268 100.911 23.285 101.099 23.286 L 101.1 23.286 C 101.911 23.286 102.52 22.762 102.926 21.715 L 103.045 21.422 L 100.089 13.323 L 102.058 13.323 L 103.542 17.85 C 103.709 18.328 103.871 18.926 103.993 19.536 L 104.008 19.628 C 104.147 19.043 104.311 18.462 104.5 17.886 L 106.005 13.313 L 107.853 13.313 L 104.906 21.451 C 104.664 22.162 104.36 22.777 103.989 23.344 L 104.008 23.312 C 103.718 23.75 103.336 24.105 102.884 24.352 L 102.867 24.36 C 102.433 24.577 101.92 24.705 101.377 24.705 C 101.344 24.705 101.309 24.705 101.275 24.704 L 101.281 24.704 L 101.254 24.704 C 100.961 24.704 100.674 24.678 100.395 24.63 L 100.425 24.634 L 100.426 24.636 Z M 37.633 2.174 L 35.988 2.174 L 36.068 1.407 L 40.193 1.407 L 40.109 2.174 L 38.549 2.174 L 38.549 6.726 L 37.633 6.726 L 37.633 2.174 Z M 44.097 6.726 L 45.131 6.726 L 43.156 3.826 L 44.133 2.427 C 44.196 2.329 44.272 2.245 44.359 2.176 L 44.361 2.175 C 44.435 2.124 44.527 2.092 44.626 2.092 L 44.642 2.092 L 44.641 2.092 C 44.747 2.093 44.848 2.117 44.938 2.156 L 44.934 2.154 L 45.127 1.43 C 44.97 1.365 44.787 1.327 44.596 1.327 L 44.575 1.327 L 44.576 1.327 L 44.542 1.327 C 44.326 1.327 44.126 1.388 43.955 1.495 L 43.96 1.493 C 43.767 1.632 43.605 1.804 43.48 2.001 L 43.476 2.009 L 42.376 3.594 L 41.897 3.594 L 41.897 1.407 L 40.981 1.407 L 40.981 6.725 L 41.897 6.725 L 41.897 4.385 L 42.524 4.385 L 44.097 6.726 Z M 45.83 1.408 L 47.26 1.408 C 47.309 1.404 47.366 1.401 47.422 1.401 C 47.938 1.401 48.414 1.558 48.811 1.825 L 48.802 1.819 C 49.13 2.08 49.339 2.482 49.339 2.929 C 49.339 2.958 49.338 2.985 49.337 3.013 L 49.337 3.009 L 49.337 3.041 C 49.337 3.371 49.247 3.679 49.089 3.942 L 49.094 3.934 C 48.933 4.196 48.704 4.403 48.434 4.536 L 48.424 4.54 C 48.148 4.674 47.823 4.752 47.48 4.752 L 47.437 4.752 L 47.439 4.752 C 47.19 4.749 46.951 4.722 46.719 4.673 L 46.742 4.678 L 46.742 6.731 L 45.826 6.731 L 45.83 1.408 Z M 48.128 3.779 C 48.31 3.603 48.422 3.358 48.422 3.085 C 48.422 3.064 48.421 3.044 48.42 3.024 L 48.42 3.026 C 48.422 3.004 48.423 2.978 48.423 2.952 C 48.423 2.697 48.31 2.472 48.13 2.319 L 48.128 2.318 C 47.907 2.179 47.637 2.096 47.348 2.096 C 47.314 2.096 47.281 2.097 47.249 2.099 L 47.253 2.099 L 46.757 2.099 L 46.757 3.988 C 46.912 4.017 47.093 4.038 47.278 4.043 L 47.284 4.043 C 47.307 4.044 47.335 4.045 47.362 4.045 C 47.653 4.045 47.921 3.945 48.132 3.775 L 48.13 3.778 L 48.128 3.779 Z M 50.211 5.524 C 50.412 5.922 50.717 6.241 51.09 6.455 L 51.1 6.462 C 51.478 6.672 51.928 6.797 52.408 6.797 C 52.434 6.797 52.459 6.797 52.486 6.795 L 52.483 6.795 C 52.503 6.795 52.528 6.797 52.552 6.797 C 53.055 6.797 53.527 6.669 53.939 6.445 L 53.924 6.453 C 54.331 6.227 54.655 5.896 54.866 5.495 L 54.873 5.482 C 55.082 5.071 55.205 4.584 55.205 4.069 C 55.205 4.043 55.205 4.017 55.204 3.991 L 55.204 3.994 C 55.204 3.975 55.205 3.952 55.205 3.929 C 55.205 3.445 55.092 2.985 54.891 2.577 L 54.899 2.595 C 54.7 2.2 54.399 1.881 54.028 1.668 L 54.017 1.662 C 53.641 1.454 53.191 1.331 52.713 1.331 C 52.684 1.331 52.656 1.331 52.629 1.332 L 52.633 1.332 C 52.609 1.331 52.582 1.331 52.556 1.331 C 52.05 1.331 51.574 1.458 51.158 1.683 L 51.174 1.675 C 50.767 1.901 50.443 2.233 50.233 2.635 L 50.228 2.648 C 50.022 3.055 49.9 3.539 49.9 4.05 C 49.9 4.074 49.9 4.099 49.902 4.122 L 49.902 4.119 C 49.902 4.142 49.9 4.166 49.9 4.192 C 49.9 4.677 50.013 5.136 50.215 5.543 L 50.207 5.526 L 50.211 5.524 Z M 54.058 5.096 C 53.936 5.395 53.734 5.639 53.479 5.81 L 53.474 5.813 C 53.225 5.973 52.922 6.067 52.596 6.067 C 52.577 6.067 52.557 6.067 52.537 6.066 L 52.54 6.066 C 52.525 6.066 52.505 6.067 52.487 6.067 C 52.159 6.067 51.854 5.968 51.601 5.798 L 51.606 5.801 C 51.356 5.623 51.162 5.378 51.05 5.092 L 51.047 5.082 C 50.929 4.786 50.86 4.444 50.86 4.087 L 50.86 4.053 L 50.86 4.054 L 50.86 4.023 C 50.86 3.671 50.931 3.338 51.061 3.035 L 51.054 3.051 C 51.179 2.751 51.38 2.502 51.633 2.323 L 51.638 2.32 C 51.889 2.15 52.198 2.048 52.534 2.048 C 52.551 2.048 52.568 2.048 52.585 2.049 L 52.582 2.049 C 52.604 2.048 52.627 2.048 52.652 2.048 C 52.98 2.048 53.287 2.149 53.541 2.319 L 53.536 2.315 C 53.78 2.494 53.966 2.738 54.071 3.021 L 54.075 3.031 C 54.182 3.321 54.244 3.656 54.244 4.005 L 54.244 4.06 L 54.244 4.057 C 54.244 4.078 54.245 4.1 54.245 4.122 C 54.245 4.475 54.175 4.811 54.052 5.118 L 54.058 5.101 L 54.058 5.096 Z M 61.498 2.174 L 63.137 2.174 L 63.137 6.726 L 64.054 6.726 L 64.054 2.174 L 65.623 2.174 L 65.709 1.407 L 61.581 1.407 L 61.498 2.174 Z M 66.479 1.407 L 69.604 1.407 L 69.524 2.16 L 67.396 2.16 L 67.396 3.622 L 69.397 3.622 L 69.397 4.331 L 67.396 4.331 L 67.396 5.964 L 69.636 5.964 L 69.559 6.728 L 66.48 6.728 L 66.479 1.407 Z M 76.463 4.557 C 76.353 4.366 76.202 4.211 76.022 4.101 L 76.016 4.097 C 75.83 3.983 75.612 3.902 75.378 3.869 L 75.368 3.868 C 75.652 3.788 75.891 3.632 76.072 3.423 L 76.073 3.421 C 76.241 3.218 76.343 2.956 76.343 2.668 C 76.343 2.654 76.343 2.642 76.342 2.628 L 76.342 2.63 C 76.343 2.617 76.343 2.601 76.343 2.586 C 76.343 2.24 76.18 1.932 75.924 1.735 L 75.921 1.733 C 75.607 1.524 75.22 1.4 74.804 1.4 C 74.752 1.4 74.701 1.403 74.651 1.407 L 74.658 1.407 L 73.01 1.407 L 73.01 6.725 L 74.742 6.725 C 74.761 6.726 74.786 6.726 74.809 6.726 C 75.153 6.726 75.481 6.658 75.779 6.532 L 75.763 6.539 C 76.031 6.425 76.25 6.245 76.406 6.015 L 76.411 6.01 C 76.55 5.796 76.633 5.532 76.633 5.249 L 76.633 5.223 L 76.633 5.224 L 76.633 5.188 C 76.633 4.956 76.572 4.738 76.466 4.549 L 76.47 4.555 L 76.463 4.557 Z M 74.47 3.58 L 73.909 3.58 L 73.909 2.088 L 74.517 2.088 C 74.54 2.087 74.566 2.086 74.592 2.086 C 74.815 2.086 75.026 2.145 75.207 2.251 L 75.2 2.247 C 75.344 2.35 75.437 2.516 75.437 2.705 C 75.437 2.716 75.437 2.727 75.436 2.739 L 75.436 2.738 L 75.436 2.749 C 75.436 2.901 75.392 3.046 75.316 3.165 L 75.318 3.162 C 75.237 3.294 75.122 3.399 74.988 3.466 L 74.982 3.468 C 74.843 3.54 74.68 3.58 74.506 3.58 L 74.475 3.58 L 74.477 3.58 L 74.47 3.58 Z M 75.642 5.513 C 75.592 5.632 75.521 5.733 75.433 5.816 C 75.221 5.966 74.954 6.056 74.669 6.056 C 74.641 6.056 74.611 6.054 74.583 6.053 L 74.588 6.053 L 73.909 6.053 L 73.909 4.269 L 74.521 4.269 C 74.551 4.267 74.583 4.266 74.618 4.266 C 74.914 4.266 75.189 4.352 75.42 4.503 L 75.414 4.5 C 75.601 4.664 75.72 4.903 75.72 5.171 C 75.72 5.295 75.694 5.413 75.649 5.519 L 75.652 5.513 L 75.642 5.513 Z" fill="#fff" style=""/>
    <script xmlns=""/><script xmlns=""/></svg>
