<svg viewBox="0 0 29 24" fill="none" xmlns="http://www.w3.org/2000/svg">
    <path d="M0.460116 13.1209L10.8784 23.5394C11.1758 23.8368 11.5721 24 11.9948 24C12.4179 24 12.814 23.8365 13.1114 23.5394L14.0573 22.5932C14.3545 22.2963 14.5182 21.8997 14.5182 21.4768C14.5182 21.0542 14.3545 20.6442 14.0573 20.3473L7.97947 14.256L27.2891 14.256C28.1598 14.256 28.8477 13.5745 28.8477 12.7036L28.8477 11.366C28.8477 10.4952 28.1598 9.7449 27.2891 9.7449L7.91051 9.7449L14.0571 3.61965C14.3543 3.32226 14.518 2.93644 14.518 2.51356C14.518 2.09115 14.3543 1.69971 14.0571 1.40255L13.1112 0.459462C12.8138 0.162066 12.4177 -1.43636e-06 11.9946 -1.47334e-06C11.5719 -1.51029e-06 11.1755 0.164175 10.8781 0.461571L0.459882 10.8798C0.161782 11.1782 -0.00215994 11.5764 -0.000988865 11.9998C-0.00192541 12.4245 0.161782 12.823 0.460116 13.1209Z" fill="#ECECEC"></path>
</svg>
