<svg
        height="800"
        width="800"
        fill="none"
        viewBox="0 0 24 24"
        xmlns="http://www.w3.org/2000/svg"
        >
<path
d="M10 9a1 1 0 110 2 1 1 0 010-2zM13 14a1 1 0 102 0 1 1 0 00-2 0zM10.707 14.707l4-4a1 1 0 10-1.414-1.414l-4 4a1 1 0 001.414 1.414z"
fill="currentColor"
/>
<path
d="M16.312 4.071l-1.141.274-.614-1c-1.17-1.91-3.944-1.91-5.114 0l-.614 1-1.14-.274c-2.178-.522-4.14 1.44-3.617 3.617l.273 1.141-1 .613c-1.91 1.171-1.91 3.945 0 5.115l1 .614-.273 1.14c-.523 2.178 1.439 4.14 3.616 3.617l1.141-.273.614 1c1.17 1.91 3.944 1.91 5.114 0l.614-1 1.14.273c2.178.523 4.14-1.439 3.618-3.616l-.274-1.141 1-.614c1.91-1.17 1.91-3.944 0-5.115l-1-.613.274-1.14c.522-2.178-1.44-4.14-3.617-3.618zm-5.165.32a1 1 0 011.705 0l.993 1.619a1 1 0 001.086.45l1.847-.444a1 1 0 011.206 1.206l-.443 1.847a1 1 0 00.45 1.086l1.619.993a1 1 0 010 1.704l-1.62.993a1 1 0 00-.45 1.086l.444 1.847a1 1 0 01-1.206 1.206l-1.847-.443a1 1 0 00-1.086.45l-.993 1.619a1 1 0 01-1.704 0l-.993-1.62a1 1 0 00-1.086-.45l-1.847.444a1 1 0 01-1.206-1.206l.443-1.847a1 1 0 00-.45-1.086l-1.619-.993a1 1 0 010-1.704l1.62-.993a1 1 0 00.45-1.086l-.444-1.847a1 1 0 011.206-1.206l1.847.443a1 1 0 001.086-.45l.993-1.619z"
fill="currentColor"
/>
        </svg>
