<svg xmlns="http://www.w3.org/2000/svg" width="96" height="28" viewBox="0 0 96 28" fill="none"><script xmlns=""/><script xmlns=""/>
    <g clip-path="url(#clip0_2104_836)">
        <mask id="mask0_2104_836" style="mask-type:alpha" maskUnits="userSpaceOnUse" x="0" y="0" width="29" height="28">
            <path d="M9.29808 0H19.3508C22.4712 0 23.6027 0.324864 24.7435 0.934946C25.8841 1.54503 26.7794 2.44033 27.3895 3.58101C27.9996 4.72175 28.3245 5.85327 28.3245 8.97362V19.0264C28.3245 22.1467 27.9996 23.2782 27.3895 24.419C26.7794 25.5597 25.8841 26.455 24.7435 27.0651C23.6027 27.6751 22.4712 28 19.3508 28H9.29808C6.17773 28 5.04622 27.6751 3.90547 27.0651C2.76479 26.455 1.86949 25.5597 1.25941 24.419C0.649327 23.2782 0.324463 22.1467 0.324463 19.0264V8.97362C0.324463 5.85327 0.649327 4.72175 1.25941 3.58101C1.86949 2.44033 2.76479 1.54503 3.90547 0.934946C5.04622 0.324864 6.17773 0 9.29808 0Z" fill="white"/>
        </mask>
        <g mask="url(#mask0_2104_836)">
            <path d="M9.29808 0H19.3508C22.4712 0 23.6027 0.324864 24.7435 0.934946C25.8841 1.54503 26.7794 2.44033 27.3895 3.58101C27.9996 4.72175 28.3245 5.85327 28.3245 8.97362V19.0264C28.3245 22.1467 27.9996 23.2782 27.3895 24.419C26.7794 25.5597 25.8841 26.455 24.7435 27.0651C23.6027 27.6751 22.4712 28 19.3508 28H9.29808C6.17773 28 5.04622 27.6751 3.90547 27.0651C2.76479 26.455 1.86949 25.5597 1.25941 24.419C0.649327 23.2782 0.324463 22.1467 0.324463 19.0264V8.97362C0.324463 5.85327 0.649327 4.72175 1.25941 3.58101C1.86949 2.44033 2.76479 1.54503 3.90547 0.934946C5.04622 0.324864 6.17773 0 9.29808 0Z" fill="white"/>
            <path fill-rule="evenodd" clip-rule="evenodd" d="M20.3702 31.7692H-0.673026C-2.20361 31.7692 -3.44458 30.5266 -3.44458 28.9937V23.3541L4.28247 15.5764L20.3702 31.7692Z" fill="#00E691"/>
            <path fill-rule="evenodd" clip-rule="evenodd" d="M25.1529 12.699L8.79907 -3.76929H29.3214C30.8524 -3.76929 32.0934 -2.52577 32.0934 -0.991687V5.70948L25.1529 12.699Z" fill="#00CCFF"/>
            <path fill-rule="evenodd" clip-rule="evenodd" d="M29.3165 31.7386H23.6425L16.3293 24.3955L32.0936 8.56665V28.9636C32.0936 29.2706 32.0439 29.5655 31.9519 29.8416C31.5843 30.9439 30.543 31.7386 29.3165 31.7386Z" fill="#8F61FF"/>
            <path fill-rule="evenodd" clip-rule="evenodd" d="M-3.44458 20.0761V-0.996205C-3.44458 -1.27875 -3.40213 -1.55162 -3.32361 -1.8084C-2.97615 -2.94373 -1.92011 -3.76929 -0.671116 -3.76929H5.88661L13.085 3.46464L-3.44458 20.0761Z" fill="#FF5C69"/>
            <path d="M13.6079 17.2317V9.15381H15.0409V17.2317H13.6079Z" fill="#00E08A"/>
        </g>
        <mask id="mask1_2104_836" style="mask-type:alpha" maskUnits="userSpaceOnUse" x="0" y="0" width="29" height="28">
            <path d="M8.91346 0H19.7355C22.722 0 23.8051 0.310991 24.8969 0.894918C25.9888 1.47885 26.8456 2.33571 27.4295 3.42758C28.0135 4.51939 28.3245 5.60242 28.3245 8.589V19.411C28.3245 22.3976 28.0135 23.4806 27.4295 24.5724C26.8456 25.6643 25.9888 26.5212 24.8969 27.1051C23.8051 27.689 22.722 28 19.7355 28H8.91346C5.92688 28 4.84385 27.689 3.75204 27.1051C2.66017 26.5212 1.80331 25.6643 1.21938 24.5724C0.635454 23.4806 0.324463 22.3976 0.324463 19.411V8.589C0.324463 5.60242 0.635454 4.51939 1.21938 3.42758C1.80331 2.33571 2.66017 1.47885 3.75204 0.894918C4.84385 0.310991 5.92688 0 8.91346 0Z" fill="white"/>
        </mask>
        <g mask="url(#mask1_2104_836)">
            <path d="M10.134 13.7299L14.3245 17.9203L18.5149 13.7299" stroke="#0FCFFF" stroke-width="2.25077"/>
        </g>
    </g>
    <path d="M42.978 5.12668C43.3094 5.19386 43.5692 5.3394 43.7573 5.56334C43.9454 5.78728 44.0394 6.04702 44.0394 6.34261C44.0394 6.66953 43.9633 6.95393 43.811 7.19578C43.6632 7.43762 43.4483 7.62346 43.1661 7.75336C42.8884 7.88325 42.5593 7.94818 42.1786 7.94818C41.7755 7.94818 41.4083 7.84966 41.0769 7.65259C40.7454 7.45552 40.4947 7.1868 40.3245 6.84645L41.0836 6.44338C41.1821 6.65389 41.3299 6.82183 41.527 6.94722C41.724 7.06814 41.9435 7.1286 42.1853 7.1286C42.4809 7.1286 42.716 7.05696 42.8907 6.91363C43.0653 6.76584 43.1527 6.56876 43.1527 6.32246C43.1527 6.08508 43.0586 5.89251 42.8705 5.74472C42.6869 5.59247 42.4428 5.51631 42.1383 5.51631H41.6882V4.76392H42.1383C42.4115 4.76392 42.6309 4.69899 42.7966 4.5691C42.9623 4.43474 43.0452 4.25782 43.0452 4.03839C43.0452 3.81895 42.9646 3.6465 42.8033 3.52111C42.6421 3.39122 42.4227 3.3263 42.145 3.3263C41.9211 3.3263 41.7151 3.38676 41.527 3.50768C41.3389 3.6286 41.1911 3.79208 41.0836 3.99808L40.3245 3.60173C40.4991 3.26583 40.7522 2.99938 41.0836 2.8023C41.415 2.60077 41.7755 2.5 42.1652 2.5C42.5235 2.5 42.8369 2.56046 43.1057 2.68138C43.3744 2.79784 43.5804 2.96579 43.7237 3.18522C43.867 3.40465 43.9387 3.66219 43.9387 3.95777C43.9387 4.23992 43.8513 4.48623 43.6767 4.69674C43.502 4.90725 43.2691 5.05053 42.978 5.12668ZM45.8168 7.94818C45.4675 7.94818 45.1831 7.85187 44.9637 7.65931C44.7487 7.46675 44.6412 7.20475 44.6412 6.87332C44.6412 6.47025 44.8024 6.15677 45.1249 5.93282C45.4518 5.70888 45.9042 5.59693 46.4819 5.59693H46.9118V5.40883C46.9118 5.1894 46.8469 5.01694 46.717 4.89155C46.5916 4.76617 46.4192 4.70345 46.1998 4.70345C45.9131 4.70345 45.6355 4.83781 45.3667 5.10653L44.8293 4.63628C45.2234 4.1929 45.7093 3.97121 46.2871 3.97121C46.7394 3.97121 47.0999 4.09659 47.3687 4.34741C47.6374 4.59822 47.7717 4.93412 47.7717 5.35509V7.85413H46.9118V7.37044H46.8715C46.782 7.55408 46.6409 7.69515 46.4483 7.79367C46.2602 7.89669 46.0497 7.94818 45.8168 7.94818ZM46.052 7.22265C46.2714 7.22265 46.4685 7.15993 46.6431 7.03455C46.8223 6.90465 46.9118 6.72553 46.9118 6.49712V6.32246H46.5894C46.2266 6.32246 45.9557 6.36276 45.7765 6.44338C45.6019 6.52399 45.5145 6.64938 45.5145 6.81958C45.5145 6.9405 45.5616 7.03901 45.6556 7.11516C45.7541 7.1868 45.8863 7.22265 46.052 7.22265ZM49.4607 7.85413H48.6076V4.06526H51.0126V4.8714H49.4607V7.85413ZM51.4679 9.49328V4.06526H52.3211V4.55566H52.3614C52.4867 4.37203 52.6436 4.22874 52.8317 4.12572C53.0241 4.0227 53.2304 3.97121 53.4497 3.97121C53.7544 3.97121 54.0231 4.05182 54.2558 4.21305C54.4934 4.37428 54.6767 4.60269 54.8067 4.89827C54.9367 5.1894 55.0015 5.52529 55.0015 5.90595C55.0015 6.30902 54.9367 6.66507 54.8067 6.97409C54.6767 7.28311 54.4934 7.5227 54.2558 7.6929C54.0183 7.8631 53.7477 7.94818 53.443 7.94818C53.2146 7.94818 53.0063 7.89669 52.8182 7.79367C52.6344 7.69515 52.4823 7.55182 52.3614 7.36372H52.3211V9.49328H51.4679ZM52.2942 5.95969C52.2942 6.31348 52.3772 6.59789 52.5428 6.81286C52.7083 7.02783 52.9233 7.13532 53.1877 7.13532C53.4655 7.13532 53.6915 7.02783 53.8662 6.81286C54.0409 6.59789 54.1282 6.31348 54.1282 5.95969C54.1282 5.61036 54.0433 5.32821 53.8729 5.11324C53.7026 4.89381 53.4833 4.78407 53.2146 4.78407C52.9415 4.78407 52.7199 4.89381 52.5495 5.11324C52.3792 5.32821 52.2942 5.61036 52.2942 5.95969ZM56.6301 7.85413L55.1455 4.06526H56.0994L57.0937 6.81958H57.134L58.0745 4.06526H59.0284L56.9056 9.5H55.9785L56.6301 7.85413ZM60.9152 7.94818C60.5524 7.94818 60.2256 7.87203 59.9344 7.71977C59.6479 7.563 59.4353 7.35254 59.2962 7.08829L60.0486 6.73225C60.1383 6.88004 60.2525 6.99199 60.3912 7.06814C60.5346 7.13978 60.6935 7.17562 60.8681 7.17562C61.0879 7.17562 61.2626 7.13757 61.3921 7.06142C61.5222 6.98527 61.5869 6.8845 61.5869 6.75912C61.5869 6.63373 61.5063 6.53297 61.3451 6.45681C61.1887 6.3762 60.9804 6.33589 60.7203 6.33589H60.2367V5.57006H60.7472C60.9982 5.57006 61.1973 5.53421 61.3451 5.46257C61.4929 5.38642 61.5668 5.28565 61.5668 5.16027C61.5668 5.03037 61.5063 4.92961 61.3854 4.85797C61.2645 4.78632 61.0965 4.75048 60.8816 4.75048C60.7026 4.75048 60.5414 4.78632 60.3979 4.85797C60.2549 4.92961 60.1383 5.03935 60.0486 5.18714L59.2962 4.83109C59.4353 4.56684 59.6479 4.35859 59.9344 4.20633C60.2256 4.04957 60.5524 3.97121 60.9152 3.97121C61.3902 3.97121 61.7707 4.06972 62.0572 4.26679C62.3441 4.46387 62.4871 4.72807 62.4871 5.0595C62.4871 5.28345 62.4113 5.47375 62.2587 5.63052C62.1066 5.78728 61.8916 5.89477 61.6138 5.95297V5.98656C61.896 6.04477 62.1157 6.15451 62.2722 6.31574C62.4334 6.47697 62.514 6.66732 62.514 6.88676C62.514 7.10173 62.4449 7.28983 62.3058 7.45106C62.1714 7.60782 61.9833 7.72874 61.7415 7.81382C61.4996 7.90341 61.2242 7.94818 60.9152 7.94818ZM64.2794 7.85413H63.2112V4.06526H64.0644V6.61804H64.1047L65.5423 4.06526H66.6172V7.85413H65.764V5.30134H65.7237L64.2794 7.85413ZM69.1009 7.85413H68.241V4.8714H67.1057V4.06526H70.2362V4.8714H69.1009V7.85413ZM71.9991 5.36852C72.7112 5.36852 73.2419 5.47155 73.5913 5.67754C73.9406 5.88354 74.1152 6.19482 74.1152 6.61132C74.1152 7.02783 73.954 7.33911 73.6316 7.5451C73.3134 7.7511 72.8297 7.85413 72.1805 7.85413H70.7295V4.06526H71.5826V5.36852H71.9991ZM72.0394 7.12188C72.8408 7.12188 73.2419 6.95168 73.2419 6.61132C73.2419 6.27097 72.8389 6.10077 72.0327 6.10077H71.5826V7.12188H72.0394ZM79.4559 5.93954C79.8321 5.97087 80.1076 6.0582 80.2822 6.20154C80.4569 6.34487 80.5442 6.5464 80.5442 6.80614C80.5442 7.1465 80.3806 7.40629 80.0538 7.58541C79.7314 7.76454 79.2477 7.85413 78.6028 7.85413H77.1584V4.06526H78.5423C79.1378 4.06526 79.5927 4.15034 79.906 4.32054C80.2242 4.48623 80.383 4.72586 80.383 5.03935C80.383 5.25878 80.3024 5.44467 80.1412 5.59693C79.9799 5.74472 79.7515 5.84774 79.4559 5.90595V5.93954ZM78.0116 4.79079V5.57678H78.4348C79.1512 5.57678 79.5097 5.44467 79.5097 5.18042C79.5097 4.92068 79.1512 4.79079 78.4348 4.79079H78.0116ZM78.4617 7.1286C78.8825 7.1286 79.1896 7.09501 79.382 7.02783C79.5745 6.96065 79.6709 6.85542 79.6709 6.71209C79.6709 6.56876 79.5745 6.46579 79.382 6.40307C79.1896 6.33589 78.8849 6.3023 78.4684 6.3023H78.0116V7.1286H78.4617Z" fill="white"/>
    <path d="M45.1136 12.9558C44.4696 12.9558 43.9027 13.119 43.4129 13.4456C42.9322 13.7721 42.5603 14.2392 42.2973 14.8469C42.0342 15.4456 41.9027 16.1485 41.9027 16.9558C41.9027 17.7721 42.0297 18.4841 42.2836 19.0918C42.5376 19.6905 42.9004 20.1531 43.3721 20.4796C43.8438 20.797 44.397 20.9558 45.0319 20.9558C45.5217 20.9558 45.9526 20.8605 46.3245 20.6701C46.7054 20.4796 47.0592 20.203 47.3857 19.8401V17.9218H44.9775V16.4796H48.8959V20.398C48.397 21.051 47.8211 21.5499 47.168 21.8946C46.524 22.2302 45.812 22.398 45.0319 22.398C44.0796 22.398 43.2496 22.1758 42.5421 21.7313C41.8347 21.2868 41.2859 20.6565 40.8959 19.8401C40.5149 19.0147 40.3245 18.0533 40.3245 16.9558C40.3245 15.8492 40.5195 14.8878 40.9095 14.0714C41.2995 13.246 41.8528 12.6111 42.5694 12.1667C43.295 11.7222 44.1431 11.5 45.1136 11.5C45.9118 11.5 46.6238 11.6814 47.2496 12.0442C47.8846 12.398 48.3925 12.8878 48.7734 13.5136L47.549 14.3707C47.2678 13.9445 46.905 13.6043 46.4605 13.3503C46.0251 13.0873 45.5762 12.9558 45.1136 12.9558ZM57.1141 17.8673C57.1141 18.2936 57.0776 18.6565 57.0052 18.9558H51.9032C51.9756 19.627 52.1889 20.1531 52.5426 20.534C52.9051 20.915 53.3905 21.1054 53.9984 21.1054C54.3522 21.1054 54.6831 21.0147 54.9916 20.8333C55.2997 20.6429 55.5582 20.3753 55.7671 20.0306L56.9644 20.6973C56.6651 21.2415 56.2657 21.6633 55.7671 21.9626C55.2681 22.2528 54.6787 22.398 53.9984 22.398C53.2545 22.398 52.6107 22.2392 52.0664 21.9218C51.5222 21.6043 51.1005 21.1553 50.8011 20.5748C50.5106 19.9853 50.3658 19.2959 50.3658 18.5068C50.3658 17.6996 50.5062 16.9966 50.7875 16.398C51.0684 15.7993 51.4722 15.3413 51.9984 15.0238C52.5242 14.6973 53.1413 14.534 53.8488 14.534C54.8556 14.534 55.649 14.8333 56.2297 15.432C56.8191 16.0306 57.1141 16.8424 57.1141 17.8673ZM55.6039 17.6769C55.6039 17.1145 55.445 16.6655 55.1277 16.3299C54.8099 15.9943 54.3837 15.8265 53.8488 15.8265C53.3497 15.8265 52.9372 15.9898 52.6107 16.3163C52.2841 16.6338 52.0664 17.0873 51.9576 17.6769H55.6039ZM62.6928 16.1259H60.6111V19.9218C60.6111 20.2846 60.7064 20.5657 60.8969 20.7653C61.0966 20.9649 61.3731 21.0646 61.7268 21.0646C61.9809 21.0646 62.2487 21.0147 62.5295 20.915V22.3027C62.185 22.4207 61.8084 22.4796 61.4003 22.4796C60.6656 22.4796 60.1034 22.2755 59.7132 21.8673C59.3235 21.4501 59.1282 20.856 59.1282 20.085V16.1259H57.9581V14.7245H59.1282V12.4388H60.6111V14.7245H62.6928V16.1259ZM72.3492 22.2075H70.7166L69.6145 19.0646H65.8458L64.7438 22.2075H63.1111L66.9343 11.6905H68.5261L72.3492 22.2075ZM67.6826 13.8265L66.3628 17.6088H69.0975L67.7642 13.8265H67.6826ZM73.4391 25.5V14.7245H74.9221V15.7449H74.9902C75.2535 15.3639 75.58 15.0691 75.9697 14.8605C76.3599 14.6429 76.7773 14.534 77.2214 14.534C77.8293 14.534 78.3692 14.6973 78.8405 15.0238C79.3123 15.3413 79.6797 15.7902 79.9425 16.3707C80.2059 16.9422 80.3371 17.5998 80.3371 18.3435C80.3371 19.1327 80.2059 19.8356 79.9425 20.4524C79.6797 21.0691 79.3123 21.5499 78.8405 21.8946C78.3692 22.2302 77.8293 22.398 77.2214 22.398C76.7501 22.398 76.3235 22.2936 75.9425 22.085C75.5616 21.8764 75.2443 21.5816 74.9902 21.2007H74.9221V25.5H73.4391ZM74.8677 18.466C74.8677 19.2098 75.0446 19.8129 75.3983 20.2755C75.7613 20.7381 76.2239 20.9694 76.7861 20.9694C77.3847 20.9694 77.8745 20.7381 78.2555 20.2755C78.6364 19.8129 78.8269 19.2098 78.8269 18.466C78.8269 17.9853 78.7409 17.5544 78.5684 17.1735C78.4051 16.7925 78.1695 16.4977 77.8609 16.2891C77.5616 16.0714 77.2215 15.9626 76.8405 15.9626C76.4595 15.9626 76.1194 16.0714 75.8201 16.2891C75.5208 16.4977 75.2851 16.7925 75.1126 17.1735C74.9493 17.5544 74.8677 17.9853 74.8677 18.466ZM81.8366 25.5V14.7245H83.3196V15.7449H83.3876C83.6505 15.3639 83.977 15.0691 84.3672 14.8605C84.7569 14.6429 85.1743 14.534 85.6189 14.534C86.2263 14.534 86.7662 14.6973 87.238 15.0238C87.7093 15.3413 88.0766 15.7902 88.34 16.3707C88.6029 16.9422 88.7346 17.5998 88.7346 18.3435C88.7346 19.1327 88.6029 19.8356 88.34 20.4524C88.0766 21.0691 87.7093 21.5499 87.238 21.8946C86.7662 22.2302 86.2263 22.398 85.6189 22.398C85.1471 22.398 84.721 22.2936 84.34 22.085C83.9591 21.8764 83.6413 21.5816 83.3876 21.2007H83.3196V25.5H81.8366ZM83.2652 18.466C83.2652 19.2098 83.4421 19.8129 83.7958 20.2755C84.1583 20.7381 84.6209 20.9694 85.1835 20.9694C85.7822 20.9694 86.272 20.7381 86.6529 20.2755C87.0339 19.8129 87.2244 19.2098 87.2244 18.466C87.2244 17.9853 87.1379 17.5544 86.9659 17.1735C86.8026 16.7925 86.5664 16.4977 86.2584 16.2891C85.9591 16.0714 85.6189 15.9626 85.238 15.9626C84.857 15.9626 84.5169 16.0714 84.2176 16.2891C83.9182 16.4977 83.6821 16.7925 83.5101 17.1735C83.3468 17.5544 83.2652 17.9853 83.2652 18.466ZM92.805 22.398C92.0703 22.398 91.4352 22.2392 90.9003 21.9218C90.374 21.5952 89.9795 21.1599 89.7166 20.6156L90.9683 19.9762C91.1495 20.3299 91.3993 20.6066 91.7166 20.8061C92.0431 21.0057 92.4105 21.1054 92.8186 21.1054C93.236 21.1054 93.5577 21.0283 93.7846 20.8741C94.0203 20.7109 94.1384 20.4932 94.1384 20.2211C94.1384 19.9581 94.0159 19.7449 93.771 19.5816C93.5353 19.4093 93.1408 19.2596 92.5873 19.1327C91.6986 18.9241 91.0271 18.6429 90.5737 18.2891C90.1291 17.9263 89.9071 17.4547 89.9071 16.8742C89.9071 16.1576 90.1612 15.5907 90.669 15.1735C91.186 14.7472 91.8755 14.534 92.737 14.534C93.3993 14.534 93.9795 14.6837 94.4785 14.983C94.9775 15.2823 95.3765 15.6996 95.6758 16.2347L94.4785 16.9286C94.2608 16.5748 94.0023 16.3027 93.703 16.1122C93.4037 15.9218 93.0815 15.8265 92.737 15.8265C92.3381 15.8265 92.0203 15.9127 91.7846 16.085C91.549 16.2574 91.4309 16.4841 91.4309 16.7653C91.4309 17.0193 91.5626 17.237 91.8254 17.4184C92.0975 17.5907 92.5193 17.7404 93.0907 17.8673C94.805 18.2483 95.6622 18.983 95.6622 20.0714C95.6622 20.7789 95.3993 21.3458 94.873 21.7721C94.356 22.1894 93.6665 22.398 92.805 22.398Z" fill="white"/>
    <defs>
        <clipPath id="clip0_2104_836">
            <rect width="28" height="28" fill="white" transform="translate(0.324463)"/>
        </clipPath>
    </defs>
    <script xmlns=""/><script xmlns=""/></svg>
