<svg xmlns="http://www.w3.org/2000/svg" width="104" height="24" viewBox="0 0 104 24" fill="none"><script xmlns=""/><script xmlns=""/>
    <path d="M87.0487 20.4179H88.7239V9.43207H87.0487V20.4179ZM102.137 13.3894L100.217 18.1523H100.159L98.1664 13.3894H96.362L99.3506 20.0464L97.6467 23.7494H99.3946L104 13.3894H102.137ZM92.6372 19.1701C92.0878 19.1701 91.3229 18.9017 91.3229 18.2371C91.3229 17.3892 92.2763 17.0641 93.0987 17.0641C93.8357 17.0641 94.1813 17.2196 94.6293 17.4318C94.4991 18.4493 93.6041 19.1701 92.6372 19.1701V19.1701ZM92.8392 13.1491C91.6263 13.1491 90.3704 13.6722 89.8506 14.8311L91.3373 15.4387C91.6551 14.8311 92.2467 14.6331 92.8679 14.6331C93.7343 14.6331 94.615 15.1421 94.6293 16.0467V16.1596C94.3259 15.99 93.6768 15.7357 92.8823 15.7357C91.2798 15.7357 89.6477 16.5976 89.6477 18.2089C89.6477 19.6789 90.962 20.6259 92.4343 20.6259C93.561 20.6259 94.1813 20.1312 94.5719 19.5519H94.6293V20.3997H96.2462V16.1877C96.2462 14.2376 94.7595 13.1491 92.8392 13.1491V13.1491ZM82.4864 14.7267H80.1037V10.9611H82.4864C83.7387 10.9611 84.4497 11.9761 84.4497 12.8439C84.4497 13.6952 83.7387 14.7267 82.4864 14.7267ZM82.4433 9.43207H78.4294V20.4179H80.1037V16.2557H82.4433C84.2998 16.2557 86.1249 14.9399 86.1249 12.8439C86.1249 10.7479 84.2998 9.43207 82.4433 9.43207ZM60.5553 19.1721C59.398 19.1721 58.429 18.2237 58.429 16.921C58.429 15.6046 59.398 14.6417 60.5553 14.6417C61.6978 14.6417 62.5945 15.6046 62.5945 16.921C62.5945 18.2237 61.6978 19.1721 60.5553 19.1721V19.1721ZM62.4788 14.0046H62.4209C62.045 13.5658 61.3215 13.1694 60.4105 13.1694C58.5013 13.1694 56.7514 14.8115 56.7514 16.921C56.7514 19.0163 58.5013 20.6445 60.4105 20.6445C61.3215 20.6445 62.045 20.248 62.4209 19.7952H62.4788V20.3331C62.4788 21.7632 61.6978 22.5277 60.4395 22.5277C59.4127 22.5277 58.7763 21.8054 58.5157 21.1968L57.0551 21.7914C57.4746 22.7824 58.5883 24 60.4395 24C62.4065 24 64.0698 22.8672 64.0698 20.1066V13.3959H62.4788V14.0046ZM65.2267 20.4179H66.9044V9.43172H65.2267V20.4179ZM69.3777 16.7936C69.3343 15.3494 70.5203 14.6135 71.3735 14.6135C72.0393 14.6135 72.6031 14.9389 72.7907 15.4065L69.3777 16.7936ZM74.5844 15.5479C74.2666 14.7123 73.297 13.1694 71.3156 13.1694C69.3486 13.1694 67.7145 14.6842 67.7145 16.9069C67.7145 19.0023 69.3343 20.6445 71.5036 20.6445C73.2539 20.6445 74.2666 19.5968 74.6858 18.9881L73.3841 18.1385C72.9505 18.7616 72.3571 19.1721 71.5036 19.1721C70.6504 19.1721 70.043 18.7898 69.6523 18.0397L74.7576 15.9725L74.5844 15.5479ZM33.909 14.3162V15.9018H37.785C37.6693 16.7936 37.3656 17.4448 36.9027 17.8979C36.3389 18.4502 35.4566 19.0589 33.909 19.0589C31.5225 19.0589 29.6569 17.176 29.6569 14.84C29.6569 12.504 31.5225 10.6209 33.909 10.6209C35.1963 10.6209 36.1361 11.1165 36.8305 11.7536L37.973 10.6353C37.0041 9.72901 35.7167 9.0353 33.909 9.0353C30.6402 9.0353 27.8923 11.6404 27.8923 14.84C27.8923 18.0397 30.6402 20.6445 33.909 20.6445C35.6736 20.6445 37.0041 20.0784 38.0453 19.0163C39.1156 17.9687 39.4484 16.4963 39.4484 15.3073C39.4484 14.9389 39.4196 14.5994 39.3614 14.3162H33.909ZM43.8551 19.1721C42.6978 19.1721 41.6998 18.2377 41.6998 16.9069C41.6998 15.5619 42.6978 14.6417 43.8551 14.6417C45.0119 14.6417 46.0099 15.5619 46.0099 16.9069C46.0099 18.2377 45.0119 19.1721 43.8551 19.1721V19.1721ZM43.8551 13.1694C41.7432 13.1694 40.0221 14.7408 40.0221 16.9069C40.0221 19.0589 41.7432 20.6445 43.8551 20.6445C45.9665 20.6445 47.6877 19.0589 47.6877 16.9069C47.6877 14.7408 45.9665 13.1694 43.8551 13.1694ZM52.216 19.1721C51.0592 19.1721 50.061 18.2377 50.061 16.9069C50.061 15.5619 51.0592 14.6417 52.216 14.6417C53.3729 14.6417 54.3709 15.5619 54.3709 16.9069C54.3709 18.2377 53.3729 19.1721 52.216 19.1721ZM52.216 13.1694C50.1042 13.1694 48.3834 14.7408 48.3834 16.9069C48.3834 19.0589 50.1042 20.6445 52.216 20.6445C54.3275 20.6445 56.0487 19.0589 56.0487 16.9069C56.0487 14.7408 54.3275 13.1694 52.216 13.1694Z" fill="white"/>
    <path d="M0.482181 22.5178L0.415477 22.4553C0.154232 22.1848 0 21.7646 0 21.2206V21.3486V1.91345C0 1.91169 0 1.91037 0 1.90897C0 1.91064 0 1.91204 0 1.9138V2.04219C0 1.45305 0.179818 1.00927 0.481103 0.743176L11.604 11.6308L0.482181 22.5178ZM0 1.90791C0 1.85949 0.00134656 1.81248 0.00386025 1.76617C0.00134656 1.81213 0 1.85949 0 1.90791ZM0.00386025 1.76406C0.00386025 1.76344 0.00385942 1.76274 0.00412874 1.76204C0.00385942 1.76274 0.00386025 1.76344 0.00386025 1.76406ZM0.00412874 1.75791C0.00412874 1.75755 0.00412874 1.7572 0.00412874 1.75685C0.00412874 1.7572 0.00412874 1.75755 0.00412874 1.75791Z" fill="url(#paint0_linear_0_246)"/>
    <path d="M15.3111 15.3899L15.3956 15.3429L19.7882 12.8998C20.207 12.6667 20.4861 12.3842 20.6254 12.0852C20.4865 12.3842 20.2073 12.6671 19.7882 12.9001L15.3956 15.3432L15.3111 15.3899V15.3899ZM15.3122 15.2612L11.604 11.6307L15.3118 8.00091L19.7882 10.4903C20.3567 10.8065 20.6758 11.214 20.7292 11.6304C20.7292 11.6307 20.7292 11.6314 20.7292 11.632C20.6758 12.0474 20.3567 12.4553 19.7882 12.7714L15.3122 15.2612" fill="url(#paint1_linear_0_246)"/>
    <path d="M1.27532 22.9326C0.964614 22.9326 0.693494 22.8338 0.482074 22.647L0.482434 22.6467C0.693854 22.8334 0.965333 22.9326 1.27604 22.9326C1.30298 22.9326 1.33036 22.9319 1.3581 22.9306C1.33 22.9319 1.30226 22.9326 1.27532 22.9326V22.9326ZM1.27569 22.8039C0.964974 22.8042 0.693854 22.705 0.482434 22.5183V22.518L11.6043 11.631L15.3124 15.2615L2.28143 22.509C1.9209 22.7091 1.5793 22.8039 1.27569 22.8039V22.8039ZM0.479292 22.6446C0.459631 22.6272 0.440329 22.6086 0.421387 22.5894L0.479292 22.6446Z" fill="url(#paint2_linear_0_246)"/>
    <path d="M11.6041 11.6309L0.481201 0.743187C0.692621 0.556798 0.963382 0.457934 1.27373 0.457934C1.57816 0.457934 1.92002 0.553019 2.28128 0.75347L15.3119 8.00105L11.6041 11.6309V11.6309ZM15.3958 7.91906L2.28128 0.625165C1.92002 0.424627 1.57816 0.329544 1.27373 0.329544C1.2723 0.329544 1.27131 0.329544 1.26987 0.329544C1.27167 0.329544 1.27301 0.329544 1.27517 0.329544C1.57888 0.329544 1.92038 0.424276 2.28128 0.624814L15.3958 7.91906V7.91906Z" fill="url(#paint3_linear_0_246)"/>
    <path d="M1.35789 22.9304C1.64015 22.9146 1.95265 22.8195 2.28123 22.6373L15.3112 15.39L2.28123 22.6373C1.95292 22.8199 1.64015 22.9146 1.35789 22.9304V22.9304ZM0.481871 22.6468L0.479089 22.6445C0.480076 22.6452 0.481153 22.6461 0.481871 22.6468ZM0.421183 22.5892L0.415527 22.5837V22.5834C0.417682 22.5854 0.419388 22.5874 0.421183 22.5892Z" fill="black"/>
    <path d="M15.311 15.3899L15.3948 15.3442L15.311 15.3899Z" fill="url(#paint4_linear_0_246)"/>
    <path d="M1.27584 22.9326C0.96513 22.9326 0.693651 22.8334 0.482231 22.6467L0.481871 22.647C0.481153 22.6463 0.480076 22.6453 0.479089 22.6446L0.421183 22.5894C0.419388 22.5876 0.417682 22.5856 0.415527 22.5836L0.482231 22.5183C0.693651 22.705 0.964771 22.8042 1.27548 22.8039C1.5791 22.8039 1.92069 22.7091 2.28123 22.509L15.3122 15.2615L15.3957 15.3432L15.3112 15.3902L2.28123 22.6374C1.95265 22.8197 1.64015 22.9148 1.35789 22.9306C1.33015 22.9319 1.30277 22.9326 1.27584 22.9326" fill="url(#paint5_linear_0_246)"/>
    <path d="M0.414037 22.5838C0.153698 22.3132 0 21.8931 0 21.349V21.3487C0 21.8931 0.153698 22.3129 0.414037 22.5834V22.5838" fill="black"/>
    <path d="M0.414955 22.5834C0.154038 22.3129 0 21.8931 0 21.3487V21.2206C0 21.7647 0.154038 22.1848 0.414955 22.4554L0.481575 22.5179L0.414955 22.5834" fill="url(#paint6_linear_0_246)"/>
    <path d="M0.415527 22.5835L0.481574 22.5187V22.519L0.415527 22.5835" fill="url(#paint7_linear_0_246)"/>
    <path d="M20.6255 12.0854C20.6938 11.9371 20.7282 11.7847 20.7282 11.6323C20.7282 11.632 20.7282 11.6316 20.7282 11.6316C20.7282 11.7844 20.6938 11.9368 20.6255 12.0854Z" fill="black"/>
    <path d="M15.3955 15.343L15.312 15.2613L19.7881 12.7715C20.3566 12.4554 20.6757 12.0476 20.729 11.6322C20.729 11.7847 20.6943 11.937 20.6252 12.0854C20.486 12.3843 20.2069 12.6669 19.7881 12.8999L15.3955 15.343Z" fill="url(#paint8_linear_0_246)"/>
    <path d="M20.7292 11.6309V11.6305C20.7288 11.1708 20.4149 10.7112 19.7882 10.3624L15.3956 7.91932H15.3953L15.3956 7.91906L19.7882 10.3621C20.4157 10.7109 20.7299 11.1712 20.7292 11.6309Z" fill="#404040"/>
    <path d="M20.7291 11.6306C20.6758 11.2142 20.3567 10.8068 19.7882 10.4906L15.3118 8.00116L15.3953 7.91943H15.3956L19.7882 10.3625C20.4149 10.7113 20.7288 11.1709 20.7291 11.6306Z" fill="url(#paint9_linear_0_246)"/>
    <path d="M0 1.909C0 1.90865 0 1.90829 0 1.90794C0 1.90829 0 1.90865 0 1.909ZM0.00386254 1.76619C0.00386254 1.76549 0.00386254 1.76479 0.00386254 1.76409C0.00386254 1.76479 0.00386254 1.76549 0.00386254 1.76619ZM0.00413119 1.76206C0.00413119 1.76066 0.00413119 1.75934 0.00413119 1.75793C0.00413119 1.75934 0.00413119 1.76066 0.00413119 1.76206ZM0.00413119 1.75688C0.0561416 0.854107 0.557921 0.332637 1.26774 0.329561C0.959991 0.331319 0.691944 0.430182 0.482106 0.615166V0.614814L0.479591 0.617274C0.457493 0.636782 0.436473 0.657434 0.415723 0.678701C0.179925 0.922739 0.0311694 1.28831 0.00413119 1.75688Z" fill="#404040"/>
    <path d="M0 2.04199V1.9136C0 1.91184 0 1.91044 0 1.90877C0 1.90842 0 1.90807 0 1.90772C0 1.85929 0.00134486 1.81193 0.00385539 1.76597C0.00385539 1.76526 0.00385539 1.76456 0.00385539 1.76386C0.00385539 1.76324 0.00385456 1.76254 0.00412355 1.76184C0.00412355 1.76043 0.00412355 1.75911 0.00412355 1.75771C0.00412355 1.75736 0.00412355 1.75701 0.00412355 1.75665C0.0311118 1.28809 0.179592 0.922513 0.414954 0.678475L0.480497 0.742979C0.179592 1.00907 0 1.45286 0 2.04199V2.04199ZM0.478704 0.617048L0.481214 0.614589C0.480497 0.615643 0.479421 0.616345 0.478704 0.617048Z" fill="url(#paint10_linear_0_246)"/>
    <path d="M15.3119 8.00098L2.28123 0.753395C1.91997 0.552945 1.57811 0.45786 1.27369 0.45786C0.963334 0.45786 0.692573 0.556723 0.481153 0.743113L0.415527 0.678609C0.436265 0.657343 0.457273 0.636691 0.479357 0.617182C0.480075 0.616479 0.481153 0.615777 0.481871 0.615074C0.691585 0.430091 0.959473 0.331227 1.26704 0.32947C1.26776 0.32947 1.26875 0.32947 1.26983 0.32947C1.27126 0.32947 1.27225 0.32947 1.27369 0.32947C1.57811 0.32947 1.91997 0.424553 2.28123 0.625091L15.3957 7.91898L15.3954 7.91925L15.3119 8.00098Z" fill="url(#paint11_linear_0_246)"/>
    <path d="M30.096 2.81309C30.1065 3.64723 29.9358 4.32003 29.585 4.83086H32.3081V0.853671H30.096V2.81309ZM28.8546 6.59766H28.1929V4.83086H28.7196C29.186 4.43743 29.4139 3.76534 29.4045 2.81309V0.20592H33.0007V4.83086H33.6022V6.59766H32.9401V5.47861H28.8546V6.59766" fill="white"/>
    <path d="M30.0959 2.8131L30.0062 2.81416L30.0069 2.88516C30.0065 3.6744 29.8382 4.30466 29.5102 4.78175L29.4163 4.91875H32.3978V0.765805H30.0062V2.81381V2.81416L30.0959 2.8131H30.1857V0.941561H32.2182V4.743H29.5849V4.83088L29.6594 4.87965C30.0124 4.36538 30.1864 3.69804 30.1864 2.88516L30.1857 2.81205L30.0959 2.8131H30.1857H30.0959ZM28.8545 6.59767V6.50979H28.2826V4.91875H28.7195H28.7528L28.778 4.89749C29.2634 4.48762 29.4945 3.80481 29.4945 2.87075L29.4942 2.8124V2.8131V0.293811H32.9108V4.91875H33.5123V6.50979H33.0298V5.47863V5.39075H28.7648V6.59767H28.8545V6.50979V6.59767H28.9443V5.5665H32.8502V6.59767V6.68555H33.6021H33.6919V4.743H33.0904V0.118054H29.3146V2.81346V2.81381L29.315 2.87075C29.3146 3.78012 29.0895 4.40388 28.6609 4.76391L28.7195 4.83088V4.743H28.1928H28.103V6.68555H28.8545H28.9443V6.59767H28.8545" fill="white"/>
    <path d="M35.5614 4.35592C35.9604 4.75102 36.4479 4.94839 37.0248 4.94839C37.6016 4.94839 38.0898 4.75102 38.4877 4.35592C38.8869 3.96082 39.0867 3.45578 39.0867 2.84239C39.0867 2.229 38.8869 1.72397 38.4877 1.32887C38.0898 0.933766 37.6016 0.736391 37.0248 0.736391C36.4479 0.736391 35.9604 0.933766 35.5614 1.32887C35.1633 1.72397 34.9635 2.229 34.9635 2.84239C34.9635 3.45578 35.1633 3.96082 35.5614 4.35592ZM38.9998 4.79733C38.4702 5.3304 37.812 5.5965 37.0248 5.5965C36.2375 5.5965 35.5789 5.3304 35.0504 4.79733C34.5209 4.26488 34.2568 3.61308 34.2568 2.84239C34.2568 2.0717 34.5209 1.41982 35.0504 0.887453C35.5789 0.354295 36.2375 0.0879372 37.0248 0.0879372C37.8074 0.0879372 38.4643 0.355702 38.9962 0.89088C39.5275 1.42606 39.7933 2.07653 39.7933 2.84239C39.7933 3.61308 39.5286 4.26488 38.9998 4.79733Z" fill="white"/>
    <path d="M35.5613 4.35587L35.4975 4.41765C35.9109 4.82857 36.4267 5.03728 37.0247 5.03622C37.6222 5.03728 38.1392 4.82857 38.5515 4.41765C38.9678 4.00638 39.1771 3.47428 39.1764 2.84234C39.1771 2.21041 38.9678 1.67831 38.5515 1.26704C38.1392 0.85612 37.6222 0.647409 37.0247 0.648463C36.4267 0.647409 35.9109 0.85612 35.4975 1.26704C35.0822 1.67831 34.8729 2.21041 34.8736 2.84234C34.8729 3.47428 35.0822 4.00638 35.4975 4.41765L35.5613 4.35587L35.6255 4.29409C35.2446 3.91472 35.0542 3.43754 35.0532 2.84234C35.0542 2.24714 35.2446 1.76997 35.6255 1.3906H35.6251C36.0094 1.01131 36.4685 0.825274 37.0247 0.82422C37.5805 0.825274 38.0406 1.01131 38.4238 1.3906L38.4253 1.392L38.4238 1.3906C38.8057 1.76997 38.9959 2.24714 38.9969 2.84234C38.9959 3.43754 38.8057 3.91472 38.4238 4.29409C38.0406 4.67337 37.5805 4.85941 37.0247 4.86047C36.4685 4.85941 36.0094 4.67337 35.6251 4.29409L35.5613 4.35587ZM38.9998 4.79728L38.9356 4.73621C38.4211 5.25249 37.7913 5.50751 37.0247 5.50857C36.2578 5.50751 35.6283 5.25249 35.1145 4.73621C34.6011 4.21816 34.3475 3.59344 34.3465 2.84234C34.3475 2.09125 34.6011 1.46652 35.1145 0.94848C35.6283 0.432195 36.2578 0.176821 37.0247 0.175766C37.7867 0.176821 38.4148 0.433249 38.9321 0.952258C39.4475 1.47267 39.7025 2.09643 39.7035 2.84234C39.7025 3.59344 39.4483 4.21816 38.9356 4.73621L38.9998 4.79728L39.0642 4.85836C39.6085 4.31123 39.8838 3.63254 39.883 2.84234C39.8838 2.05662 39.6078 1.37935 39.0607 0.829755C38.5136 0.278055 37.8285 -0.000956725 37.0247 9.93536e-06C36.2167 -0.000956725 35.5293 0.276737 34.9858 0.826328V0.825976C34.4405 1.37346 34.1663 2.05214 34.167 2.84234C34.1663 3.63254 34.4405 4.31123 34.9858 4.85871V4.85836C35.5293 5.40795 36.2167 5.68503 37.0247 5.68432C37.8323 5.68503 38.5196 5.40795 39.0642 4.85836L38.9998 4.79728Z" fill="white"/>
    <path d="M43.2775 5.59644C42.4849 5.59644 41.8204 5.33386 41.2838 4.80826C40.7463 4.2831 40.479 3.6277 40.479 2.84233C40.479 2.05688 40.7463 1.40157 41.2838 0.876407C41.8204 0.350807 42.4849 0.0878762 43.2775 0.0878762C44.0893 0.0878762 44.7493 0.375237 45.256 0.949522L44.7738 1.4064C44.4085 0.959452 43.9087 0.73633 43.2775 0.73633C42.6901 0.73633 42.1945 0.930277 41.7912 1.31817C41.3873 1.70607 41.1856 2.21418 41.1856 2.84233C41.1856 3.47049 41.3873 3.97895 41.7912 4.36649C42.1945 4.75439 42.6901 4.94833 43.2775 4.94833C43.9245 4.94833 44.4758 4.69322 44.9327 4.18283L45.4139 4.65377C45.1677 4.9435 44.8598 5.17313 44.488 5.34203C44.1173 5.51163 43.7131 5.59644 43.2775 5.59644" fill="white"/>
    <path d="M43.2774 5.59651V5.50863C42.5049 5.50757 41.8684 5.25528 41.3472 4.7462C40.8265 4.23642 40.5694 3.60826 40.5687 2.8424C40.5694 2.07655 40.8265 1.44839 41.3472 0.93861C41.8684 0.42918 42.5049 0.176882 43.2774 0.175828C44.0679 0.177234 44.6963 0.45115 45.1879 1.00689L45.256 0.949595L45.1936 0.886411L44.7114 1.34364L44.7738 1.40647L44.8439 1.35155C44.4631 0.884038 43.9297 0.647207 43.2774 0.648525C42.6696 0.647822 42.1468 0.852139 41.7284 1.25541C41.3059 1.66018 41.0947 2.19632 41.0958 2.8424C41.0947 3.48849 41.3059 4.02533 41.7284 4.4294C42.1468 4.83267 42.6696 5.03699 43.2774 5.03628C43.9489 5.03734 44.5307 4.76746 44.9999 4.2409L44.9326 4.1829L44.8691 4.24503L45.3503 4.71597L45.4138 4.65384L45.3447 4.59795C45.1069 4.87731 44.8109 5.09841 44.45 5.26248C44.0913 5.42655 43.7014 5.50828 43.2774 5.50863V5.59651V5.68439C43.7248 5.68439 44.1429 5.59721 44.5258 5.42181C44.9088 5.24807 45.2279 5.01018 45.4828 4.71017L45.5351 4.64874L44.9961 4.12077L44.9281 4.05416L44.865 4.1249C44.421 4.61957 43.8999 4.85947 43.2774 4.86053C42.71 4.85947 42.2426 4.67616 41.8543 4.30373H41.854C41.4683 3.93297 41.2761 3.45272 41.2753 2.8424C41.2761 2.23209 41.4683 1.75254 41.854 1.38108H41.8543C42.2426 1.00865 42.71 0.825336 43.2774 0.824281C43.8872 0.825687 44.3533 1.0351 44.7037 1.4614L44.7653 1.53697L45.3183 1.01278L45.3794 0.955045L45.324 0.892298C44.8025 0.29912 44.1106 -0.000895208 43.2774 7.14525e-05C42.4645 -0.000631573 41.7719 0.27302 41.2203 0.81435C40.6659 1.35463 40.3881 2.03779 40.3892 2.8424C40.3881 3.64702 40.6659 4.33018 41.2203 4.87081C41.7719 5.41179 42.4645 5.68509 43.2774 5.68439V5.59651" fill="white"/>
    <path d="M48.2133 5.47876H47.5208V0.853816H46.0164V0.206065H49.7178V0.853816H48.2133V5.47876Z" fill="white"/>
    <path d="M48.2133 5.47877V5.39089H47.6105V0.765951H46.1061V0.293956H49.6279V0.765951H48.1235V5.47877H48.2133V5.39089V5.47877H48.303V0.941707H49.8075V0.206078V0.1182H45.9265V0.853829V0.941707H47.431V5.56665H48.2133H48.303V5.47877H48.2133" fill="white"/>
    <path d="M54.4698 0.206046L52.4317 4.65383C52.1501 5.28242 51.7324 5.5965 51.1756 5.5965C51.01 5.5965 50.8318 5.55739 50.6408 5.47874L50.8213 4.85261C50.937 4.91676 51.0573 4.94839 51.1826 4.94839C51.3432 4.94839 51.4676 4.91781 51.5553 4.85674C51.643 4.79531 51.7243 4.683 51.7998 4.52131L51.9954 4.10116L50.1824 0.206046H50.9949L52.3265 3.23266H52.3563L53.6569 0.206046H54.4698" fill="white"/>
    <path d="M54.4698 0.206043L54.3877 0.170013L52.3496 4.61815L52.3492 4.61885C52.0722 5.22811 51.6938 5.50554 51.1755 5.50861C51.0243 5.50861 50.8581 5.47294 50.6754 5.39771L50.6407 5.47874L50.7273 5.50273L50.9075 4.8766L50.8213 4.8526L50.7774 4.92915C50.9051 4.99989 51.0415 5.03662 51.1825 5.03627C51.354 5.03627 51.4977 5.00437 51.6075 4.92809C51.7155 4.85155 51.8021 4.72694 51.8814 4.55804L52.0771 4.13789L52.0939 4.10116L50.3219 0.293921H50.936L52.2672 3.32054H52.3562H52.4158L53.7165 0.293921H54.4698V0.206043L54.3877 0.170013L54.4698 0.206043V0.118165H53.6569H53.5973L52.2731 3.19874L52.3562 3.23266V3.14478H52.3264V3.23266L52.4088 3.19803L51.0541 0.118165H50.1823H50.0427L51.8965 4.10116L51.718 4.48492C51.6468 4.63906 51.5703 4.73863 51.503 4.78494C51.4375 4.83134 51.3319 4.86086 51.1825 4.86051C51.0727 4.86051 50.9693 4.83336 50.8654 4.77606L50.7659 4.72114L50.5544 5.45475L50.5326 5.52953L50.606 5.55976C50.8055 5.64175 50.9952 5.68437 51.1755 5.68437C51.7705 5.6871 52.2278 5.33629 52.5137 4.68924L52.5133 4.68985L54.6083 0.118165H54.4698V0.206043" fill="white"/>
    <path d="M55.2534 5.47876V0.206065H59.1505V5.47876H58.458V0.853816H55.945V5.47876H55.2534Z" fill="white"/>
    <path d="M55.2536 5.47877H55.3434V0.293956H59.0607V5.39089H58.548V0.765951H55.8554V5.39089H55.2536V5.47877H55.3434H55.2536V5.56665H55.9451H56.0349V0.941707H58.3684V5.56665H59.1507H59.2405V0.1182H55.1638V5.56665H55.2536V5.47877" fill="white"/>
    <path d="M60.3843 5.47876V0.206065H61.0762V2.46656H63.7694V0.206065H64.462V5.47876H63.7694V3.0999H61.0762V5.47876H60.3843Z" fill="white"/>
    <path d="M60.3842 5.47877H60.474V0.293956H60.9863V2.55445H63.8591V0.293956H64.3722V5.39089H63.8591V3.01203H60.9863V5.39089H60.3842V5.47877H60.474H60.3842V5.56665H61.0761H61.1659V3.18779H63.6796V5.56665H64.462H64.5517V0.1182H63.7693H63.6796V2.37869H61.1659V0.1182H60.3842H60.2944V5.56665H60.3842V5.47877Z" fill="white"/>
    <path d="M66.6619 4.35586C67.0611 4.75096 67.5485 4.94833 68.1254 4.94833C68.7023 4.94833 69.1904 4.75096 69.5884 4.35586C69.9875 3.96076 70.1874 3.45572 70.1874 2.84233C70.1874 2.22894 69.9875 1.72391 69.5884 1.32881C69.1904 0.933705 68.7023 0.73633 68.1254 0.73633C67.5485 0.73633 67.0611 0.933705 66.6619 1.32881C66.2643 1.72391 66.064 2.22894 66.064 2.84233C66.064 3.45572 66.2643 3.96076 66.6619 4.35586ZM70.1004 4.79727C69.5713 5.33034 68.9127 5.59644 68.1254 5.59644C67.3381 5.59644 66.6799 5.33034 66.151 4.79727C65.6215 4.26482 65.3574 3.61302 65.3574 2.84233C65.3574 2.07164 65.6215 1.41976 66.151 0.887392C66.6799 0.354234 67.3381 0.0878762 68.1254 0.0878762C68.9085 0.0878762 69.5649 0.355641 70.0969 0.890819C70.6282 1.426 70.894 2.07647 70.894 2.84233C70.894 3.61302 70.6293 4.26482 70.1004 4.79727Z" fill="white"/>
    <path d="M66.6619 4.35587L66.5981 4.41765C67.0119 4.82857 67.5274 5.03728 68.1253 5.03622C68.7232 5.03728 69.2398 4.82857 69.6525 4.41765C70.0685 4.00638 70.2778 3.47428 70.2771 2.84234C70.2778 2.21041 70.0685 1.67831 69.6525 1.26704C69.2398 0.85612 68.7232 0.647409 68.1253 0.648463C67.5274 0.647409 67.0119 0.85612 66.5981 1.26704C66.1829 1.67831 65.9735 2.21041 65.9742 2.84234C65.9735 3.47428 66.1829 4.00638 66.5981 4.41765L66.6619 4.35587L66.7261 4.29409C66.3452 3.91472 66.1548 3.43754 66.1537 2.84234C66.1548 2.24714 66.3452 1.76997 66.7261 1.3906C67.1101 1.01131 67.5695 0.825274 68.1253 0.82422C68.6812 0.825274 69.1413 1.01131 69.5245 1.3906L69.5273 1.39341L69.5245 1.3906C69.9064 1.76997 70.0968 2.24714 70.0976 2.84234C70.0968 3.43754 69.9064 3.91472 69.5245 4.29409C69.1413 4.67337 68.6812 4.85941 68.1253 4.86047C67.5695 4.85941 67.1101 4.67337 66.7261 4.29409L66.6619 4.35587ZM70.1003 4.79728L70.0361 4.73621C69.5217 5.25249 68.8919 5.50751 68.1253 5.50857C67.3587 5.50751 66.7289 5.25249 66.2155 4.73621L66.2127 4.73348L66.2155 4.73621C65.7017 4.21816 65.4482 3.59344 65.4471 2.84234C65.4482 2.09125 65.7017 1.46652 66.2155 0.94848C66.7289 0.432195 67.3587 0.176821 68.1253 0.175766C68.8874 0.176821 69.5155 0.433249 70.0326 0.952258C70.5482 1.47267 70.8034 2.09643 70.8042 2.84234C70.8034 3.59344 70.5488 4.21816 70.0361 4.73621L70.1003 4.79728L70.1649 4.85836C70.7095 4.31123 70.9844 3.63254 70.9837 2.84234C70.9844 2.05662 70.7085 1.37935 70.1614 0.829755C69.6143 0.278055 68.929 -0.000956725 68.1253 9.93536e-06C67.3173 -0.000956725 66.6304 0.276737 66.0864 0.826328V0.825976C65.5411 1.37346 65.2669 2.05214 65.2676 2.84234C65.2669 3.63254 65.5411 4.31123 66.0864 4.85871V4.85836C66.6304 5.40795 67.3173 5.68503 68.1253 5.68432C68.9333 5.68503 69.6203 5.40795 70.1649 4.85836L70.1003 4.79728" fill="white"/>
    <path d="M74.4154 4.83101H75.8078C76.0735 4.83101 76.289 4.74005 76.4551 4.55779C76.6202 4.37685 76.7028 4.17772 76.7028 3.96145C76.7028 3.74554 76.6176 3.54816 76.447 3.36898C76.2773 3.1898 76.0529 3.0999 75.7773 3.0999H74.4154V4.83101ZM74.4154 2.46656H75.6722C75.9335 2.46656 76.1427 2.38246 76.3007 2.2125C76.4587 2.04325 76.5377 1.85826 76.5377 1.65676C76.5377 1.45561 76.4613 1.27088 76.3078 1.1048C76.1552 0.937563 75.9532 0.853816 75.7028 0.853816H74.4154V2.46656ZM73.7241 5.47876V0.206065H75.6722C76.0933 0.206065 76.4587 0.342717 76.7666 0.614524C77.0754 0.887474 77.2298 1.22967 77.2298 1.642C77.2298 1.89218 77.1634 2.11329 77.0296 2.30486C76.8977 2.49635 76.7208 2.64126 76.5 2.73942V2.7686C76.7648 2.85682 76.9838 3.00921 77.1544 3.22512C77.3241 3.44139 77.4103 3.69202 77.4103 3.97657C77.4103 4.4084 77.2487 4.76677 76.9246 5.05141C76.6014 5.33631 76.219 5.47876 75.7773 5.47876H73.7241" fill="white"/>
    <path d="M74.4158 4.83102V4.9189H75.8082C76.0946 4.91995 76.3415 4.81696 76.5219 4.61642C76.6997 4.42318 76.7939 4.20005 76.793 3.96146C76.7939 3.72261 76.6961 3.50045 76.5129 3.30897C76.3271 3.1115 76.0731 3.01097 75.7777 3.01203H74.326V4.9189H74.4158V4.83102H74.5056V3.18778H75.7777C76.0344 3.18875 76.2275 3.26846 76.3819 3.42875C76.5399 3.59624 76.6126 3.76892 76.6135 3.96146C76.6126 4.15541 76.5417 4.33055 76.3882 4.49937C76.2382 4.66282 76.0533 4.74173 75.8082 4.74314H74.4158V4.83102H74.5056H74.4158ZM74.4158 2.46657V2.55444H75.6727C75.9527 2.55541 76.1933 2.46068 76.3675 2.27156V2.27192C76.5372 2.09062 76.6279 1.88121 76.6279 1.65677C76.6279 1.43365 76.5408 1.22493 76.3747 1.04575V1.0461C76.2068 0.859976 75.9734 0.764892 75.7032 0.765947H74.326V2.55444H74.4158V2.46657H74.5056V0.941703H75.7032C75.9339 0.943109 76.1045 1.01517 76.2409 1.16316L76.2418 1.16377L76.2409 1.16351C76.3819 1.31729 76.4474 1.47794 76.4483 1.65677C76.4474 1.8349 76.3801 1.99624 76.2346 2.15311V2.15346C76.0928 2.30417 75.9141 2.37763 75.6727 2.37869H74.4158V2.46657H74.5056H74.4158ZM73.7245 5.47877H73.8143V0.293953H75.6727C76.0739 0.294656 76.4133 0.421639 76.7069 0.679825C76.9986 0.938627 77.1396 1.25139 77.1405 1.642C77.1405 1.87717 77.0785 2.07867 76.9564 2.2554C76.8325 2.43396 76.67 2.5671 76.4627 2.65946L76.4106 2.68283V2.7686V2.83144L76.4708 2.85165C76.7212 2.93549 76.9232 3.07618 77.0839 3.27909L77.0848 3.28006L77.0839 3.27874C77.2419 3.48059 77.3209 3.70917 77.3209 3.97658C77.32 4.38715 77.171 4.71563 76.8649 4.98621C76.556 5.25705 76.1996 5.39019 75.7777 5.39089H73.7245V5.47877H73.8143H73.7245V5.56665H75.7777C76.2391 5.56735 76.6467 5.41559 76.9852 5.11662C77.3263 4.81828 77.5014 4.43003 77.5005 3.97658C77.5014 3.67489 77.408 3.40229 77.2257 3.17161L77.2249 3.17056L77.2257 3.17126C77.0453 2.94269 76.8101 2.77853 76.5291 2.68556L76.5004 2.7686H76.5901V2.73943H76.5004L76.5372 2.8194C76.7715 2.71544 76.9636 2.55919 77.1046 2.35391V2.35426C77.2482 2.14801 77.32 1.90731 77.32 1.642C77.3209 1.20841 77.1539 0.836338 76.8272 0.549327L76.8254 0.547657L76.8272 0.549327C76.504 0.263372 76.1134 0.117493 75.6727 0.118196H73.6348V5.56665H73.7245V5.47877" fill="white"/>
    <defs>
        <linearGradient id="paint0_linear_0_246" x1="10.6178" y1="1.70843" x2="-4.12704" y2="16.7715" gradientUnits="userSpaceOnUse">
            <stop stop-color="#00A0FF"/>
            <stop offset="0.00657445" stop-color="#00A1FF"/>
            <stop offset="0.2601" stop-color="#00BEFF"/>
            <stop offset="0.5122" stop-color="#00D2FF"/>
            <stop offset="0.7604" stop-color="#00DFFF"/>
            <stop offset="1" stop-color="#00E3FF"/>
        </linearGradient>
        <linearGradient id="paint1_linear_0_246" x1="21.4218" y1="11.6313" x2="-0.301038" y2="11.6313" gradientUnits="userSpaceOnUse">
            <stop stop-color="#FFE000"/>
            <stop offset="0.4087" stop-color="#FFBD00"/>
            <stop offset="0.7754" stop-color="#FFA500"/>
            <stop offset="1" stop-color="#FF9C00"/>
        </linearGradient>
        <linearGradient id="paint2_linear_0_246" x1="13.3357" y1="13.6481" x2="-6.65935" y2="34.0747" gradientUnits="userSpaceOnUse">
            <stop stop-color="#FF3A44"/>
            <stop offset="1" stop-color="#C31162"/>
        </linearGradient>
        <linearGradient id="paint3_linear_0_246" x1="-2.40174" y1="-5.79065" x2="6.52685" y2="3.33064" gradientUnits="userSpaceOnUse">
            <stop stop-color="#32A071"/>
            <stop offset="0.0685" stop-color="#2DA771"/>
            <stop offset="0.4762" stop-color="#15CF74"/>
            <stop offset="0.8009" stop-color="#06E775"/>
            <stop offset="1" stop-color="#00F076"/>
        </linearGradient>
        <linearGradient id="paint4_linear_0_246" x1="21.3614" y1="11.7402" x2="-0.146875" y2="11.7402" gradientUnits="userSpaceOnUse">
            <stop stop-color="#CCB300"/>
            <stop offset="0.4087" stop-color="#CC9700"/>
            <stop offset="0.7754" stop-color="#CC8400"/>
            <stop offset="1" stop-color="#CC7D00"/>
        </linearGradient>
        <linearGradient id="paint5_linear_0_246" x1="13.3355" y1="13.6481" x2="-6.65954" y2="34.0747" gradientUnits="userSpaceOnUse">
            <stop stop-color="#CC2E36"/>
            <stop offset="1" stop-color="#9C0E4E"/>
        </linearGradient>
        <linearGradient id="paint6_linear_0_246" x1="10.6044" y1="1.70841" x2="-4.14083" y2="16.7529" gradientUnits="userSpaceOnUse">
            <stop stop-color="#008DE0"/>
            <stop offset="0.00657445" stop-color="#008DE0"/>
            <stop offset="0.2601" stop-color="#00A7E0"/>
            <stop offset="0.5122" stop-color="#00B8E0"/>
            <stop offset="0.7604" stop-color="#00C4E0"/>
            <stop offset="1" stop-color="#00C7E0"/>
        </linearGradient>
        <linearGradient id="paint7_linear_0_246" x1="13.2084" y1="13.7581" x2="-6.53915" y2="33.9827" gradientUnits="userSpaceOnUse">
            <stop stop-color="#E0333C"/>
            <stop offset="1" stop-color="#AB0F56"/>
        </linearGradient>
        <linearGradient id="paint8_linear_0_246" x1="21.4216" y1="11.6314" x2="-0.301185" y2="11.6314" gradientUnits="userSpaceOnUse">
            <stop stop-color="#E0C500"/>
            <stop offset="0.4087" stop-color="#E0A600"/>
            <stop offset="0.7754" stop-color="#E09100"/>
            <stop offset="1" stop-color="#E08900"/>
        </linearGradient>
        <linearGradient id="paint9_linear_0_246" x1="21.4218" y1="11.6315" x2="-0.301057" y2="11.6315" gradientUnits="userSpaceOnUse">
            <stop stop-color="#FFE840"/>
            <stop offset="0.4087" stop-color="#FFCE40"/>
            <stop offset="0.7754" stop-color="#FFBC40"/>
            <stop offset="1" stop-color="#FFB540"/>
        </linearGradient>
        <linearGradient id="paint10_linear_0_246" x1="10.6044" y1="1.70823" x2="-4.14078" y2="16.7527" gradientUnits="userSpaceOnUse">
            <stop stop-color="#40B8FF"/>
            <stop offset="0.00657445" stop-color="#40B9FF"/>
            <stop offset="0.2601" stop-color="#40CEFF"/>
            <stop offset="0.5122" stop-color="#40DDFF"/>
            <stop offset="0.7604" stop-color="#40E7FF"/>
            <stop offset="1" stop-color="#40EAFF"/>
        </linearGradient>
        <linearGradient id="paint11_linear_0_246" x1="-2.40179" y1="-5.79072" x2="6.5268" y2="3.33057" gradientUnits="userSpaceOnUse">
            <stop stop-color="#65B895"/>
            <stop offset="0.0685" stop-color="#62BD95"/>
            <stop offset="0.4762" stop-color="#50DB97"/>
            <stop offset="0.8009" stop-color="#44ED98"/>
            <stop offset="1" stop-color="#40F498"/>
        </linearGradient>
    </defs>
    <script xmlns=""/><script xmlns=""/></svg>
