<svg xmlns="http://www.w3.org/2000/svg" width="97" height="28" viewBox="0 0 97 28" fill="none"><script xmlns=""/><script xmlns=""/>
    <g clip-path="url(#clip0_10951_74257)">
        <mask id="mask0_10951_74257" style="mask-type:luminance" maskUnits="userSpaceOnUse" x="36" y="0" width="34" height="8">
            <path d="M36 0H70V8H36V0Z" fill="white"/>
        </mask>
        <g mask="url(#mask0_10951_74257)">
            <path d="M36.1523 7.05699V5.52999H36.4343C36.5455 5.42193 36.6374 5.29581 36.7063 5.15699C36.7933 4.99499 36.8663 4.77999 36.9263 4.50999C36.9863 4.23799 37.0273 3.89399 37.0473 3.47599L37.1413 1.63599H39.7323V5.52999H40.2353V7.04699H39.7323V5.99999H36.6553V7.05699H36.1523ZM37.0643 5.53099H39.2293V2.10499H37.6193L37.5503 3.47699C37.5362 3.76675 37.5061 4.05551 37.4603 4.34199C37.4241 4.57393 37.3696 4.80264 37.2973 5.02599C37.2399 5.20292 37.1617 5.37244 37.0643 5.53099ZM42.2943 6.06799C41.9993 6.06799 41.7403 5.99799 41.5173 5.85799C41.2924 5.71366 41.1123 5.5093 40.9973 5.26799C40.8685 4.9904 40.8052 4.68692 40.8123 4.38099C40.8123 4.03999 40.8733 3.74199 40.9973 3.48799C41.1118 3.24585 41.292 3.04073 41.5173 2.89599C41.7403 2.75499 41.9993 2.68499 42.2953 2.68499C42.5903 2.68499 42.8493 2.75499 43.0703 2.89499C43.2933 3.03599 43.4673 3.23399 43.5903 3.48799C43.7153 3.74199 43.7783 4.03999 43.7783 4.38099C43.7783 4.71899 43.7153 5.01399 43.5903 5.26699C43.4673 5.51999 43.2933 5.71699 43.0703 5.85699C42.8493 5.99699 42.5903 6.06799 42.2953 6.06799H42.2943ZM42.2943 5.61599C42.5193 5.61599 42.7043 5.55899 42.8493 5.44399C42.9943 5.32899 43.1013 5.17799 43.1703 4.98999C43.2403 4.80299 43.2753 4.59999 43.2753 4.37999C43.2753 4.16199 43.2403 3.95799 43.1703 3.76999C43.1078 3.59027 42.9967 3.4314 42.8493 3.31099C42.6907 3.18985 42.4948 3.12795 42.2953 3.13599C42.0959 3.12795 41.9 3.18985 41.7413 3.31099C41.5938 3.43099 41.4823 3.58952 41.4193 3.76899C41.3493 3.95899 41.3143 4.16199 41.3143 4.38099C41.3143 4.59899 41.3493 4.80299 41.4193 4.99099C41.4893 5.17799 41.5963 5.32899 41.7413 5.44399C41.8863 5.55899 42.0713 5.61599 42.2953 5.61599H42.2943ZM45.8743 6.06799C45.5683 6.06799 45.3043 5.99599 45.0823 5.85099C44.8588 5.7036 44.6817 5.49592 44.5713 5.25199C44.4477 4.97854 44.3862 4.68106 44.3913 4.38099C44.3913 4.04799 44.4533 3.75499 44.5753 3.50099C44.6993 3.24499 44.8703 3.04499 45.0913 2.90199C45.3123 2.75699 45.5713 2.68499 45.8663 2.68499C46.0963 2.68499 46.3043 2.72699 46.4883 2.81199C46.6733 2.89799 46.8243 3.01699 46.9423 3.16999C47.0603 3.32399 47.1333 3.50299 47.1623 3.70699H46.6593C46.6169 3.55174 46.5275 3.41341 46.4033 3.31099C46.2733 3.19499 46.0963 3.13599 45.8753 3.13599C45.6915 3.13234 45.5111 3.18618 45.3593 3.28999C45.2074 3.3979 45.0886 3.54614 45.0163 3.71799C44.9363 3.90099 44.8953 4.11599 44.8953 4.36399C44.8953 4.61599 44.9353 4.83699 45.0143 5.02399C45.0943 5.21199 45.2083 5.35699 45.3543 5.46099C45.5071 5.56601 45.689 5.62025 45.8743 5.61599C46.0053 5.61599 46.1243 5.59399 46.2303 5.54799C46.3363 5.50361 46.4303 5.43497 46.5048 5.3476C46.5793 5.26023 46.6322 5.15657 46.6593 5.04499H47.1623C47.1355 5.23548 47.0619 5.41637 46.9482 5.57149C46.8344 5.72662 46.684 5.85116 46.5103 5.93399C46.3283 6.02399 46.1153 6.06799 45.8743 6.06799ZM47.6393 3.19599V2.72699H50.2983V3.19599H49.2243V5.99999H48.7213V3.19599H47.6393ZM51.3553 7.22699C51.2308 7.22783 51.1071 7.20754 50.9893 7.16699L51.1173 6.72399C51.2393 6.75599 51.3473 6.76699 51.4413 6.75899C51.5371 6.74932 51.6258 6.70441 51.6903 6.63299C51.7643 6.55899 51.8313 6.43899 51.8923 6.27299L51.9863 6.01699L50.7763 2.72699H51.3213L52.2253 5.33499H52.2593L53.1623 2.72699H53.7083L52.3183 6.47699C52.2563 6.64699 52.1783 6.78699 52.0863 6.89699C52.0003 7.00464 51.89 7.09033 51.7643 7.14699C51.6352 7.20231 51.4958 7.22958 51.3553 7.22699ZM54.3713 5.99999V2.72699H56.9453V5.99999H56.4423V3.19599H54.8743V5.99999H54.3713ZM60.0543 4.13399V4.60199H58.2473V4.13399H60.0543ZM58.3663 2.72699V5.99999H57.8643V2.72699H58.3663ZM60.4373 2.72699V5.99999H59.9343V2.72699H60.4373ZM62.6853 6.06799C62.3903 6.06799 62.1313 5.99799 61.9083 5.85799C61.6834 5.71366 61.5033 5.5093 61.3883 5.26799C61.2592 4.99049 61.1955 4.687 61.2023 4.38099C61.2023 4.03999 61.2643 3.74199 61.3883 3.48799C61.5028 3.24585 61.683 3.04073 61.9083 2.89599C62.1313 2.75499 62.3903 2.68499 62.6853 2.68499C62.9813 2.68499 63.2393 2.75499 63.4613 2.89499C63.6843 3.03599 63.8573 3.23399 63.9813 3.48799C64.1063 3.74199 64.1683 4.03999 64.1683 4.38099C64.1683 4.71899 64.1063 5.01399 63.9813 5.26699C63.8573 5.51999 63.6843 5.71699 63.4613 5.85699C63.2393 5.99699 62.9813 6.06799 62.6853 6.06799ZM62.6853 5.61599C62.8843 5.62429 63.0801 5.56353 63.2393 5.44399C63.3843 5.32899 63.4913 5.17799 63.5613 4.98999C63.6313 4.80299 63.6653 4.59999 63.6653 4.37999C63.6653 4.16199 63.6313 3.95799 63.5613 3.76999C63.4985 3.59015 63.3871 3.43127 63.2393 3.31099C63.0807 3.18985 62.8848 3.12795 62.6853 3.13599C62.4859 3.12795 62.29 3.18985 62.1313 3.31099C61.9838 3.43099 61.8723 3.58952 61.8093 3.76899C61.7393 3.95899 61.7053 4.16199 61.7053 4.38099C61.7053 4.59899 61.7403 4.80299 61.8093 4.99099C61.8793 5.17799 61.9863 5.32899 62.1313 5.44399C62.2763 5.55899 62.4613 5.61599 62.6853 5.61599ZM66.6233 5.99999V2.72699H67.9613C68.3143 2.72699 68.5933 2.80699 68.8013 2.96599C69.0083 3.12499 69.1113 3.33599 69.1113 3.59599C69.1113 3.79599 69.0533 3.94999 68.9353 4.05899C68.8069 4.17232 68.6499 4.24839 68.4813 4.27899C68.6023 4.29499 68.7193 4.33899 68.8333 4.40599C68.9483 4.47399 69.0433 4.56799 69.1183 4.68799C69.197 4.81874 69.2363 4.96945 69.2313 5.12199C69.2338 5.2813 69.1893 5.43782 69.1033 5.57199C69.013 5.70846 68.8862 5.8169 68.7373 5.88499C68.5773 5.96199 68.3873 5.99999 68.1663 5.99999H66.6233ZM67.1013 5.53999H68.1663C68.3393 5.53999 68.4753 5.49899 68.5733 5.41599C68.6218 5.37489 68.6603 5.32325 68.6858 5.26501C68.7112 5.20678 68.7231 5.14349 68.7203 5.07999C68.7245 5.00696 68.7136 4.93386 68.6883 4.86522C68.663 4.79659 68.6239 4.73388 68.5733 4.68099C68.519 4.63024 68.4549 4.59104 68.3849 4.56578C68.315 4.54051 68.2406 4.5297 68.1663 4.53399H67.1013V5.53999ZM67.1013 4.09999H67.9613C68.0963 4.09999 68.2123 4.08099 68.3093 4.04399C68.3969 4.01205 68.4735 3.95586 68.5303 3.88199C68.5839 3.8094 68.612 3.72118 68.6103 3.63099C68.6121 3.5665 68.597 3.50267 68.5665 3.44584C68.5359 3.389 68.4911 3.34114 68.4363 3.30699C68.3213 3.22699 68.1633 3.18699 67.9613 3.18699H67.1013V4.09999Z" fill="#EBEBEB"/>
        </g>
        <mask id="mask1_10951_74257" style="mask-type:luminance" maskUnits="userSpaceOnUse" x="36" y="8" width="61" height="19">
            <path d="M36 8H97V27H36V8Z" fill="white"/>
        </mask>
        <g mask="url(#mask1_10951_74257)">
            <path d="M37.2773 23.0001V11.3641H41.4253C42.3273 11.3641 43.0753 11.5191 43.6693 11.8291C44.2683 12.1401 44.7153 12.5701 45.0103 13.1191C45.3063 13.6651 45.4543 14.2961 45.4543 15.0111C45.4543 15.7241 45.3043 16.3511 45.0043 16.8921C44.7093 17.4301 44.2623 17.8491 43.6643 18.1481C43.0693 18.4471 42.3213 18.5971 41.4193 18.5971H38.2773V17.0851H41.2603C41.8293 17.0851 42.2903 17.0041 42.6473 16.8411C43.0073 16.6781 43.2703 16.4411 43.4373 16.1311C43.6033 15.8211 43.6873 15.4471 43.6873 15.0111C43.6873 14.5721 43.6013 14.1911 43.4313 13.8691C43.2584 13.5413 42.9801 13.2814 42.6413 13.1311C42.2853 12.9561 41.8173 12.8691 41.2383 12.8691H39.0333V23.0001H37.2773ZM43.0223 17.7501L45.8973 23.0001H43.8973L41.0783 17.7501H43.0223ZM52.9823 19.3801V14.2731H54.6873V23.0001H53.0163V21.4891H52.9263C52.7243 21.9541 52.4023 22.3431 51.9593 22.6531C51.5193 22.9601 50.9733 23.1131 50.3173 23.1131C49.7573 23.1131 49.2603 22.9911 48.8293 22.7441C48.4013 22.4941 48.0633 22.1251 47.8173 21.6361C47.5753 21.1481 47.4543 20.5441 47.4543 19.8241V14.2731H49.1523V19.6191C49.1523 20.2141 49.3173 20.6881 49.6473 21.0391C49.9773 21.3921 50.4043 21.5691 50.9313 21.5691C51.2493 21.5691 51.5653 21.4891 51.8803 21.3291C52.1983 21.1701 52.4613 20.9291 52.6703 20.6081C52.8823 20.2861 52.9863 19.8771 52.9823 19.3811V19.3801ZM63.4523 14.4201C63.4307 14.1684 63.3519 13.925 63.2219 13.7083C63.0919 13.4917 62.9142 13.3076 62.7023 13.1701C62.2623 12.8711 61.7103 12.7221 61.0433 12.7221C60.5663 12.7221 60.1533 12.7971 59.8043 12.9491C59.4563 13.0971 59.1853 13.3011 58.9923 13.5631C58.8023 13.8201 58.7083 14.1131 58.7083 14.4431C58.7083 14.7201 58.7723 14.9581 58.9013 15.1591C59.0343 15.3591 59.2063 15.5291 59.4183 15.6651C59.6343 15.7971 59.8653 15.9091 60.1113 16.0001C60.3573 16.0871 60.5943 16.1601 60.8213 16.2161L61.9583 16.5111C62.3293 16.6021 62.7103 16.7251 63.1003 16.8811C63.4903 17.0361 63.8523 17.2411 64.1853 17.4941C64.5183 17.7481 64.7873 18.0631 64.9923 18.4381C65.2003 18.8131 65.3043 19.2611 65.3043 19.7841C65.3043 20.4441 65.1343 21.0281 64.7933 21.5401C64.4563 22.0511 63.9653 22.4551 63.3213 22.7501C62.6813 23.0461 61.9073 23.1931 60.9983 23.1931C60.1263 23.1931 59.3733 23.0551 58.7363 22.7781C58.1003 22.5021 57.6023 22.1101 57.2423 21.6021C56.8823 21.0911 56.6833 20.4851 56.6453 19.7841H58.4073C58.4413 20.2041 58.5773 20.5541 58.8163 20.8351C59.0583 21.1121 59.3663 21.3181 59.7423 21.4551C60.1213 21.5871 60.5353 21.6531 60.9863 21.6531C61.4823 21.6531 61.9243 21.5761 62.3103 21.4211C62.7003 21.2611 63.0073 21.0411 63.2303 20.7611C63.4543 20.4771 63.5663 20.1461 63.5663 19.7671C63.5663 19.4221 63.4673 19.1401 63.2703 18.9211C63.0508 18.6827 62.781 18.4962 62.4803 18.3751C62.1176 18.22 61.7435 18.093 61.3613 17.9951L59.9863 17.6191C59.0543 17.3661 58.3163 16.9921 57.7703 16.5001C57.2293 16.0081 56.9583 15.3561 56.9583 14.5461C56.9583 13.8751 57.1403 13.2901 57.5033 12.7901C57.8673 12.2901 58.3593 11.9021 58.9803 11.6251C59.6023 11.3451 60.3023 11.2051 61.0833 11.2051C61.8713 11.2051 62.5663 11.3431 63.1683 11.6191C63.7743 11.8961 64.2513 12.2771 64.6003 12.7611C64.9483 13.2421 65.1303 13.7961 65.1453 14.4211L63.4523 14.4201ZM71.3403 14.2731V15.6361H66.5733V14.2731H71.3403ZM67.8513 12.1821H69.5513V20.4371C69.5513 20.7671 69.5993 21.0151 69.6983 21.1821C69.7836 21.3334 69.9175 21.4515 70.0783 21.5171C70.2383 21.5741 70.4103 21.6021 70.5963 21.6021C70.7323 21.6021 70.8513 21.5921 70.9543 21.5741L71.1923 21.5281L71.4993 22.9321C71.3624 22.9807 71.222 23.0188 71.0793 23.0461C70.855 23.0921 70.6264 23.1149 70.3973 23.1141C69.9684 23.125 69.542 23.0435 69.1473 22.8751C68.7667 22.7132 68.4409 22.4448 68.2093 22.1021C67.9713 21.7541 67.8513 21.3161 67.8513 20.7901V12.1821ZM76.8013 23.1761C75.9833 23.1761 75.2693 22.9891 74.6593 22.6141C74.046 22.235 73.5535 21.689 73.2393 21.0401C72.9023 20.3661 72.7333 19.5781 72.7333 18.6761C72.7333 17.7711 72.9023 16.9791 73.2393 16.3011C73.5522 15.6497 74.0449 15.1014 74.6593 14.7211C75.2693 14.3471 75.9833 14.1591 76.8023 14.1591C77.6203 14.1591 78.3343 14.3471 78.9443 14.7221C79.5543 15.0971 80.0273 15.6231 80.3643 16.3021C80.7013 16.9791 80.8703 17.7711 80.8703 18.6761C80.8703 19.5781 80.7013 20.3661 80.3643 21.0401C80.0502 21.689 79.5577 22.235 78.9443 22.6141C78.3343 22.9891 77.6193 23.1761 76.8013 23.1761ZM76.8073 21.7501C77.3373 21.7501 77.7773 21.6101 78.1253 21.3301C78.4743 21.0501 78.7313 20.6761 78.8983 20.2101C79.0683 19.7441 79.1543 19.2311 79.1543 18.6701C79.1543 18.1141 79.0693 17.6021 78.8983 17.1361C78.7509 16.6948 78.4832 16.3034 78.1253 16.0061C77.7773 15.7221 77.3373 15.5791 76.8073 15.5791C76.2733 15.5791 75.8303 15.7221 75.4773 16.0061C75.1192 16.3042 74.85 16.6951 74.6993 17.1361C74.5333 17.6021 74.4493 18.1141 74.4493 18.6711C74.4493 19.2311 74.5333 19.7441 74.6993 20.2111C74.8693 20.6761 75.1293 21.0491 75.4783 21.3301C75.8303 21.6101 76.2723 21.7501 76.8073 21.7501ZM82.7663 23.0001V14.2731H84.4083V15.6591H84.4993C84.6593 15.1891 84.9393 14.8201 85.3393 14.5511C85.7453 14.2781 86.2033 14.1421 86.7153 14.1421C86.9565 14.1434 87.1975 14.1567 87.4373 14.1821V15.8071C87.3174 15.7787 87.1958 15.7577 87.0733 15.7441C86.9003 15.7176 86.7254 15.7042 86.5503 15.7041C86.1493 15.7041 85.7903 15.7901 85.4763 15.9601C85.1665 16.1241 84.908 16.3706 84.7296 16.6724C84.5511 16.9742 84.4597 17.3195 84.4653 17.6701V23.0001H82.7663ZM92.3563 23.1761C91.4963 23.1761 90.7563 22.9921 90.1343 22.6251C89.5162 22.2532 89.0189 21.7103 88.7023 21.0621C88.3693 20.3881 88.2023 19.5991 88.2023 18.6931C88.2023 17.7991 88.3693 17.0111 88.7023 16.3291C89.0144 15.676 89.5028 15.1232 90.1123 14.7331C90.7173 14.3501 91.4263 14.1591 92.2363 14.1591C92.7293 14.1591 93.2063 14.2411 93.6683 14.4031C94.1303 14.5661 94.5453 14.8221 94.9123 15.1711C95.2803 15.5191 95.5693 15.9711 95.7823 16.5281C95.9943 17.0811 96.1003 17.7541 96.1003 18.5461V19.1481H89.1623V17.8751H94.4353C94.4353 17.4281 94.3453 17.0321 94.1623 16.6871C93.9879 16.347 93.7223 16.0621 93.3953 15.8641C93.0693 15.6631 92.6873 15.5621 92.2483 15.5621C91.7703 15.5621 91.3543 15.6801 90.9983 15.9151C90.6503 16.141 90.3678 16.4545 90.1793 16.8241C89.9903 17.1951 89.8953 17.5981 89.8953 18.0341V19.0281C89.8953 19.6121 89.9983 20.1081 90.2023 20.5171C90.4113 20.9271 90.7003 21.2391 91.0723 21.4551C91.4423 21.6671 91.8763 21.7731 92.3723 21.7731C92.6943 21.7731 92.9883 21.7271 93.2533 21.6361C93.5183 21.5421 93.7483 21.4011 93.9413 21.2161C94.1343 21.0301 94.2813 20.8011 94.3843 20.5281L95.9923 20.8181C95.8633 21.2921 95.6323 21.7061 95.2993 22.0621C94.9514 22.4266 94.5259 22.7083 94.0543 22.8861C93.5583 23.0801 92.9933 23.1761 92.3563 23.1761Z" fill="#EBEBEB"/>
        </g>
        <g clip-path="url(#clip1_10951_74257)">
            <path fill-rule="evenodd" clip-rule="evenodd" d="M13.44 28C7.10433 28 3.93648 28 1.96824 26.0318C4.55163e-07 24.0635 3.28917e-07 20.8956 4.9589e-08 14.5599L2.10413e-10 13.4399C-2.79118e-07 7.10424 -4.55163e-07 3.93639 1.96824 1.96813C3.93648 4.55163e-07 7.10433 3.23317e-07 13.44 4.87436e-08L14.56 2.05078e-10C20.8957 -2.74373e-07 24.0635 -4.55163e-07 26.0318 1.96813C28 3.93635 28 7.10424 28 13.4399V14.5599C28 20.8956 28 24.0635 26.0318 26.0318C24.0635 28 20.8957 28 14.56 28H13.44Z" fill="#2B71F6"/>
            <path d="M16.1916 17.2555C15.4372 17.067 14.9082 16.3922 14.9082 15.6182V6.4998C14.9082 5.62069 15.7389 4.97593 16.5958 5.19L22.022 6.54552C22.7765 6.73395 23.3054 7.40878 23.3054 8.18276V17.3012C23.3054 18.1803 22.4747 18.825 21.6179 18.611L16.1916 17.2555Z" fill="white"/>
            <path d="M5.97867 21.4544C5.22426 21.266 4.69531 20.5912 4.69531 19.8172V10.6988C4.69531 9.81967 5.52599 9.1749 6.38289 9.38898L11.8092 10.7445C12.5636 10.9329 13.0925 11.6078 13.0925 12.3817V21.5002C13.0925 22.3793 12.2618 23.024 11.4049 22.8099L5.97867 21.4544Z" fill="white"/>
            <path d="M11.0841 19.3551C10.3297 19.1666 9.80078 18.4918 9.80078 17.7178V8.59943C9.80078 7.72029 10.6315 7.07556 11.4884 7.2896L16.9146 8.64512C17.669 8.83358 18.198 9.50838 18.198 10.2824V19.4008C18.198 20.2799 17.3673 20.9246 16.5104 20.7106L11.0841 19.3551Z" fill="white"/>
            <path d="M14.6353 20.2445C14.3976 20.184 14.2285 19.9738 14.2202 19.7288L13.9842 12.7651C13.9159 11.8435 13.2317 11.1105 12.5168 10.8946C12.4766 10.8825 12.4338 10.8988 12.41 10.9333C12.3859 10.9684 12.3952 11.017 12.4289 11.0431C12.6054 11.1797 13.0913 11.6257 13.0913 12.395L13.0899 19.8529L14.6353 20.2445Z" fill="#2B71F6"/>
            <path d="M19.7447 18.1432C19.5072 18.0838 19.3379 17.8743 19.3296 17.6297L19.0935 10.6665C19.0252 9.74484 18.3411 9.01184 17.6262 8.79596C17.586 8.78386 17.5432 8.80019 17.5194 8.83471C17.4952 8.86981 17.5046 8.91839 17.5383 8.94445C17.7148 9.08111 18.2007 9.52711 18.2007 10.2964L18.1993 17.7568L19.7447 18.1432Z" fill="#2B71F6"/>
        </g>
    </g>
    <defs>
        <clipPath id="clip0_10951_74257">
            <rect width="97" height="28" fill="white"/>
        </clipPath>
        <clipPath id="clip1_10951_74257">
            <rect width="28" height="28" fill="white"/>
        </clipPath>
    </defs>
    <script xmlns=""/><script xmlns=""/></svg>
