<svg xmlns="http://www.w3.org/2000/svg" width="106" height="20" viewBox="0 0 106 20" fill="none"><script xmlns=""/><script xmlns=""/>
    <path d="M38.216 15.16C37.192 15.16 36.3333 15.0107 35.64 14.712C34.9573 14.4133 34.44 14.024 34.088 13.544C33.736 13.064 33.5493 12.552 33.528 12.008C33.528 11.9227 33.56 11.848 33.624 11.784C33.688 11.7093 33.768 11.672 33.864 11.672H35.576C35.7147 11.672 35.8213 11.704 35.896 11.768C35.9707 11.8213 36.04 11.8907 36.104 11.976C36.1787 12.1573 36.296 12.3333 36.456 12.504C36.6267 12.6747 36.856 12.8187 37.144 12.936C37.432 13.0427 37.7893 13.096 38.216 13.096C38.9093 13.096 39.4267 12.984 39.768 12.76C40.12 12.536 40.296 12.232 40.296 11.848C40.296 11.5707 40.2 11.3467 40.008 11.176C39.8267 11.0053 39.5333 10.8507 39.128 10.712C38.7333 10.5733 38.2053 10.424 37.544 10.264C36.744 10.0933 36.0613 9.87467 35.496 9.608C34.9413 9.33067 34.52 8.97867 34.232 8.552C33.9547 8.11467 33.816 7.576 33.816 6.936C33.816 6.296 33.992 5.73067 34.344 5.24C34.696 4.73867 35.192 4.34933 35.832 4.072C36.472 3.784 37.2347 3.64 38.12 3.64C38.8347 3.64 39.464 3.736 40.008 3.928C40.5627 4.12 41.0213 4.37067 41.384 4.68C41.7573 4.98933 42.04 5.32 42.232 5.672C42.424 6.024 42.5253 6.36533 42.536 6.696C42.536 6.78133 42.504 6.86133 42.44 6.936C42.376 7 42.296 7.032 42.2 7.032H40.408C40.3013 7.032 40.2053 7.01067 40.12 6.968C40.0347 6.92533 39.9653 6.85067 39.912 6.744C39.848 6.46667 39.656 6.22667 39.336 6.024C39.0267 5.81067 38.6213 5.704 38.12 5.704C37.5973 5.704 37.1813 5.8 36.872 5.992C36.5733 6.184 36.424 6.47733 36.424 6.872C36.424 7.128 36.4987 7.34667 36.648 7.528C36.808 7.69867 37.0693 7.85333 37.432 7.992C37.8053 8.12 38.296 8.264 38.904 8.424C39.8427 8.616 40.6053 8.84533 41.192 9.112C41.7787 9.37867 42.2107 9.72533 42.488 10.152C42.7653 10.568 42.904 11.096 42.904 11.736C42.904 12.4507 42.7013 13.064 42.296 13.576C41.9013 14.088 41.352 14.4827 40.648 14.76C39.9547 15.0267 39.144 15.16 38.216 15.16ZM44.8295 15C44.7228 15 44.6322 14.9627 44.5575 14.888C44.4828 14.8133 44.4455 14.7173 44.4455 14.6V7.08C44.4455 6.96267 44.4828 6.86667 44.5575 6.792C44.6322 6.71733 44.7228 6.68 44.8295 6.68H46.3175C46.4242 6.68 46.5148 6.71733 46.5895 6.792C46.6748 6.86667 46.7175 6.96267 46.7175 7.08V7.624C46.9308 7.32533 47.2242 7.06933 47.5975 6.856C47.9815 6.64267 48.4348 6.53067 48.9575 6.52C50.1948 6.49867 51.0428 6.968 51.5015 7.928C51.7468 7.512 52.0988 7.176 52.5575 6.92C53.0268 6.65333 53.5388 6.52 54.0935 6.52C54.6482 6.52 55.1495 6.648 55.5975 6.904C56.0455 7.14933 56.3975 7.53333 56.6535 8.056C56.9202 8.568 57.0535 9.22933 57.0535 10.04V14.6C57.0535 14.7173 57.0162 14.8133 56.9415 14.888C56.8668 14.9627 56.7762 15 56.6695 15H55.0855C54.9788 15 54.8882 14.9627 54.8135 14.888C54.7388 14.8133 54.7015 14.7173 54.7015 14.6V10.168C54.7015 9.73067 54.6375 9.38933 54.5095 9.144C54.3815 8.888 54.2108 8.70667 53.9975 8.6C53.7948 8.49333 53.5655 8.44 53.3095 8.44C53.0855 8.44 52.8668 8.49333 52.6535 8.6C52.4508 8.70667 52.2802 8.888 52.1415 9.144C52.0135 9.38933 51.9495 9.73067 51.9495 10.168V14.6C51.9495 14.7173 51.9122 14.8133 51.8375 14.888C51.7628 14.9627 51.6668 15 51.5495 15H49.9815C49.8642 15 49.7682 14.9627 49.6935 14.888C49.6188 14.8133 49.5815 14.7173 49.5815 14.6V10.168C49.5815 9.73067 49.5175 9.38933 49.3895 9.144C49.2615 8.888 49.0908 8.70667 48.8775 8.6C48.6748 8.49333 48.4508 8.44 48.2055 8.44C47.9815 8.44 47.7628 8.49867 47.5495 8.616C47.3362 8.72267 47.1602 8.89867 47.0215 9.144C46.8935 9.38933 46.8295 9.72533 46.8295 10.152V14.6C46.8295 14.7173 46.7922 14.8133 46.7175 14.888C46.6428 14.9627 46.5522 15 46.4455 15H44.8295ZM61.4404 15.16C60.875 15.16 60.3684 15.0533 59.9204 14.84C59.4724 14.616 59.115 14.3173 58.8484 13.944C58.5817 13.5707 58.4484 13.1547 58.4484 12.696C58.4484 11.9387 58.7524 11.3413 59.3604 10.904C59.979 10.4667 60.7897 10.168 61.7924 10.008L63.8884 9.704V9.416C63.8884 9 63.7924 8.68 63.6004 8.456C63.4084 8.232 63.0724 8.12 62.5924 8.12C62.2404 8.12 61.9577 8.18933 61.7444 8.328C61.531 8.46667 61.3657 8.648 61.2484 8.872C61.163 9.01067 61.0404 9.08 60.8804 9.08H59.3604C59.243 9.08 59.1524 9.048 59.0884 8.984C59.0244 8.90933 58.9977 8.824 59.0084 8.728C59.0084 8.54667 59.0777 8.33333 59.2164 8.088C59.355 7.84267 59.5684 7.60267 59.8564 7.368C60.1444 7.12267 60.5124 6.92 60.9604 6.76C61.4084 6.6 61.9577 6.52 62.6084 6.52C63.2804 6.52 63.8564 6.6 64.3364 6.76C64.8164 6.92 65.2004 7.144 65.4884 7.432C65.7764 7.72 65.9897 8.056 66.1284 8.44C66.267 8.81333 66.3364 9.21867 66.3364 9.656V14.6C66.3364 14.7173 66.299 14.8133 66.2244 14.888C66.1497 14.9627 66.0537 15 65.9364 15H64.3684C64.2617 15 64.171 14.9627 64.0964 14.888C64.0217 14.8133 63.9844 14.7173 63.9844 14.6V14.008C63.8457 14.2107 63.659 14.4027 63.4244 14.584C63.1897 14.7547 62.907 14.8933 62.5764 15C62.2564 15.1067 61.8777 15.16 61.4404 15.16ZM62.0804 13.496C62.4324 13.496 62.747 13.4213 63.0244 13.272C63.3017 13.1227 63.5204 12.8933 63.6804 12.584C63.8404 12.2747 63.9204 11.8853 63.9204 11.416V11.144L62.4324 11.384C61.8564 11.48 61.435 11.624 61.1684 11.816C60.9017 12.008 60.7684 12.2427 60.7684 12.52C60.7684 12.7227 60.827 12.8987 60.9444 13.048C61.0724 13.1973 61.2377 13.3093 61.4404 13.384C61.643 13.4587 61.8564 13.496 62.0804 13.496ZM68.6576 15C68.551 15 68.4603 14.9627 68.3856 14.888C68.311 14.8133 68.2736 14.7173 68.2736 14.6V7.08C68.2736 6.97333 68.311 6.88267 68.3856 6.808C68.4603 6.72267 68.551 6.68 68.6576 6.68H70.2256C70.3323 6.68 70.423 6.72267 70.4976 6.808C70.583 6.88267 70.6256 6.97333 70.6256 7.08V7.72C70.8923 7.38933 71.2176 7.13333 71.6016 6.952C71.9963 6.77067 72.4496 6.68 72.9616 6.68H73.6496C73.7563 6.68 73.847 6.71733 73.9216 6.792C73.9963 6.86667 74.0336 6.96267 74.0336 7.08V8.456C74.0336 8.57333 73.9963 8.66933 73.9216 8.744C73.847 8.81867 73.7563 8.856 73.6496 8.856H72.2416C71.7723 8.856 71.4043 8.98933 71.1376 9.256C70.871 9.512 70.7376 9.88 70.7376 10.36V14.6C70.7376 14.7173 70.7003 14.8133 70.6256 14.888C70.551 14.9627 70.455 15 70.3376 15H68.6576ZM79.2268 15C78.5654 15 78.0001 14.8933 77.5308 14.68C77.0614 14.456 76.7041 14.1147 76.4588 13.656C76.2241 13.1973 76.1068 12.6213 76.1068 11.928V8.568H74.8588C74.7414 8.568 74.6454 8.53067 74.5708 8.456C74.4961 8.38133 74.4588 8.28533 74.4588 8.168V7.08C74.4588 6.96267 74.4961 6.86667 74.5708 6.792C74.6454 6.71733 74.7414 6.68 74.8588 6.68H76.1068V4.04C76.1068 3.92267 76.1441 3.82667 76.2188 3.752C76.3041 3.67733 76.4001 3.64 76.5068 3.64H78.0748C78.1921 3.64 78.2881 3.67733 78.3628 3.752C78.4374 3.82667 78.4748 3.92267 78.4748 4.04V6.68H80.4748C80.5814 6.68 80.6721 6.71733 80.7468 6.792C80.8214 6.86667 80.8588 6.96267 80.8588 7.08V8.168C80.8588 8.28533 80.8214 8.38133 80.7468 8.456C80.6721 8.53067 80.5814 8.568 80.4748 8.568H78.4748V11.736C78.4748 12.1413 78.5441 12.4613 78.6828 12.696C78.8321 12.92 79.0881 13.032 79.4508 13.032H80.6188C80.7254 13.032 80.8161 13.0693 80.8908 13.144C80.9654 13.2187 81.0028 13.3093 81.0028 13.416V14.6C81.0028 14.7173 80.9654 14.8133 80.8908 14.888C80.8161 14.9627 80.7254 15 80.6188 15H79.2268ZM88.5949 15C88.4775 15 88.3815 14.9627 88.3069 14.888C88.2322 14.8133 88.1949 14.7173 88.1949 14.6V6.024H85.2829C85.1762 6.024 85.0855 5.98667 85.0109 5.912C84.9362 5.83733 84.8989 5.74667 84.8989 5.64V4.2C84.8989 4.08267 84.9362 3.98667 85.0109 3.912C85.0855 3.83733 85.1762 3.8 85.2829 3.8H93.6669C93.7842 3.8 93.8802 3.83733 93.9549 3.912C94.0295 3.98667 94.0669 4.08267 94.0669 4.2V5.64C94.0669 5.74667 94.0295 5.83733 93.9549 5.912C93.8802 5.98667 93.7842 6.024 93.6669 6.024H90.7709V14.6C90.7709 14.7173 90.7335 14.8133 90.6589 14.888C90.5842 14.9627 90.4882 15 90.3709 15H88.5949ZM98.8379 15C98.6672 15 98.5285 14.9573 98.4219 14.872C98.3259 14.776 98.2565 14.664 98.2139 14.536L94.8539 4.28C94.8432 4.22667 94.8379 4.17867 94.8379 4.136C94.8379 4.05067 94.8699 3.976 94.9339 3.912C94.9979 3.83733 95.0779 3.8 95.1739 3.8H96.8539C97.0139 3.8 97.1365 3.848 97.2219 3.944C97.3179 4.02933 97.3765 4.10933 97.3979 4.184L99.8939 12.008L102.374 4.184C102.406 4.10933 102.465 4.02933 102.55 3.944C102.635 3.848 102.758 3.8 102.918 3.8H104.598C104.694 3.8 104.774 3.83733 104.838 3.912C104.902 3.976 104.934 4.05067 104.934 4.136C104.934 4.17867 104.929 4.22667 104.918 4.28L101.558 14.536C101.526 14.664 101.457 14.776 101.35 14.872C101.254 14.9573 101.115 15 100.934 15H98.8379Z" fill="white"/>
    <path d="M22.6563 0.0219116H2.34375C1.72205 0.0219116 1.12603 0.264508 0.686384 0.696254C0.246929 1.12817 0 1.71375 0 2.32454V15.3728C0 15.9836 0.246929 16.5691 0.686384 17.0011C1.12601 17.4328 1.72205 17.6754 2.34375 17.6754H4.6875V18.443H3.51563V19.9781H21.4844V18.443H20.3125V17.6754H22.6563C23.2779 17.6754 23.874 17.4328 24.3136 17.0011C24.7531 16.5692 25 15.9836 25 15.3728V2.32454C25 1.71375 24.7531 1.12818 24.3136 0.696254C23.874 0.264508 23.2779 0.0219116 22.6563 0.0219116ZM23.4375 15.3728C23.4375 15.5763 23.3552 15.7716 23.2087 15.9156C23.0622 16.0595 22.8634 16.1403 22.6563 16.1403H2.34375C2.13658 16.1403 1.93778 16.0595 1.79129 15.9156C1.64481 15.7716 1.5625 15.5763 1.5625 15.3728V2.32454C1.5625 2.12101 1.64481 1.92569 1.79129 1.78178C1.93778 1.63787 2.13658 1.557 2.34375 1.557H22.6563C22.8634 1.557 23.0622 1.63787 23.2087 1.78178C23.3552 1.92569 23.4375 2.12101 23.4375 2.32454V15.3728Z" fill="white"/>
    <script xmlns=""/><script xmlns=""/></svg>
